<?xml version="1.0" encoding="UTF-8" standalone="no"?>
<!-- Created with Inkscape (http://www.inkscape.org/) -->

<svg
   version="1.1"
   id="svg2"
   width="4000"
   height="4000"
   viewBox="0 0 4000 4000"
   sodipodi:docname="vecteezy_comic-speech-bubbles-comic-dialogue-on-halftone-shadows_27661655.eps"
   xmlns:inkscape="http://www.inkscape.org/namespaces/inkscape"
   xmlns:sodipodi="http://sodipodi.sourceforge.net/DTD/sodipodi-0.dtd"
   xmlns="http://www.w3.org/2000/svg"
   xmlns:svg="http://www.w3.org/2000/svg">
  <defs
     id="defs6" />
  <sodipodi:namedview
     id="namedview4"
     pagecolor="#ffffff"
     bordercolor="#000000"
     borderopacity="0.25"
     inkscape:showpageshadow="2"
     inkscape:pageopacity="0.0"
     inkscape:pagecheckerboard="0"
     inkscape:deskcolor="#d1d1d1" />
  <g
     id="g8"
     inkscape:groupmode="layer"
     inkscape:label="ink_ext_XXXXXX"
     transform="matrix(1.3333333,0,0,-1.3333333,0,4000)">
    <g
       id="g10"
       transform="scale(0.1)">
      <path
         d="m 18523.9,17951.2 c 24.2,252.5 145.3,441.5 381.1,576.6 -266,37.5 -444.6,167.7 -567,396.4 -43.9,-274.9 -188.4,-450.1 -443.7,-560.1 303.4,-18.6 506,-152.7 629.6,-412.9 z m 729.8,636.1 c 367.4,-85.9 576.7,-318.5 585.4,-642.1 7.7,-283.4 -184.1,-549.1 -457.9,-634.4 -322.3,-100.3 -584.2,25.4 -816,391.6 -76.2,-388.5 -285.7,-601.8 -610.5,-621.8 -282.2,-17.4 -550,162.9 -641.9,432.2 -107.3,314.3 12.6,574.8 384.3,819.2 -212.7,10.7 -386.1,86.1 -516.2,246.7 -91,112.3 -136.5,242 -143.4,385.9 -13.1,269.9 160.3,530.8 418,628.5 303.5,115.1 562.5,16.5 828.8,-321.3 35.1,208.8 130,375 304.6,489.3 115.7,75.7 243.6,112.3 381.3,109.5 281.3,-5.8 532.6,-192.1 621.7,-457.8 102.1,-304.6 -0.2,-557.6 -338.2,-825.5"
         style="fill:#000000;fill-opacity:1;fill-rule:nonzero;stroke:none"
         id="path12" />
      <path
         d="m 20220.4,18837.5 c -328.8,0.6 -593,267.9 -591,598 2.1,324.4 268.1,586.9 594.4,586.4 328.8,-0.6 593,-267.9 590.9,-598 -2,-324.5 -268,-587 -594.3,-586.4"
         style="fill:#000000;fill-opacity:1;fill-rule:nonzero;stroke:none"
         id="path14" />
      <path
         d="m 19333.7,20459.8 c -2,-327.6 -271.6,-589.9 -602.5,-586.4 -323.9,3.5 -584.8,271.2 -582.8,598 2,327.6 271.5,589.8 602.6,586.3 323.8,-3.4 584.7,-271.2 582.7,-597.9"
         style="fill:#000000;fill-opacity:1;fill-rule:nonzero;stroke:none"
         id="path16" />
      <path
         d="m 20438.1,17577 c -320.9,-1.8 -587.3,262.5 -589.1,584.5 -1.8,320.7 262.7,586.8 584.9,588.6 321,1.8 587.3,-262.4 589.1,-584.4 1.9,-320.7 -262.6,-586.9 -584.9,-588.7"
         style="fill:#000000;fill-opacity:1;fill-rule:nonzero;stroke:none"
         id="path18" />
      <path
         d="m 18061,20235.4 c 0,-321.2 -265.6,-586.6 -587.1,-586.6 -321.3,0 -587,265.4 -587,586.6 0,321.1 265.6,586.5 587,586.5 321.4,0 587,-265.4 587.1,-586.5"
         style="fill:#000000;fill-opacity:1;fill-rule:nonzero;stroke:none"
         id="path20" />
      <path
         d="m 19396.1,17256.4 c 314.3,2.2 577,-259.3 576.4,-573.6 -0.7,-311.6 -257.9,-569.6 -570,-571.8 -314.3,-2.2 -577,259.3 -576.4,573.6 0.7,311.7 257.9,569.6 570,571.8"
         style="fill:#000000;fill-opacity:1;fill-rule:nonzero;stroke:none"
         id="path22" />
      <path
         d="m 16438,18184.7 c -312.2,-0.7 -571.4,257.6 -572.1,570 -0.7,311.9 257.9,571 570.5,571.7 312.2,0.6 571.4,-257.7 572.1,-570.1 0.7,-311.9 -257.9,-571 -570.5,-571.6"
         style="fill:#000000;fill-opacity:1;fill-rule:nonzero;stroke:none"
         id="path24" />
      <path
         d="m 18131.1,15890.8 c -314.1,0.5 -562.6,249.8 -562.1,563.8 0.5,313.9 250,562.2 564.3,561.7 314.1,-0.6 562.6,-249.9 562.1,-563.9 -0.6,-313.9 -250,-562.2 -564.3,-561.6"
         style="fill:#000000;fill-opacity:1;fill-rule:nonzero;stroke:none"
         id="path26" />
      <path
         d="m 17212.7,17493.3 c 1.4,-314.3 -246.2,-564.3 -559.7,-565 -314.2,-0.7 -563.5,247.7 -563.4,561.3 0,310.3 246.2,558.8 555.6,560.9 314.9,2.2 566.1,-244.4 567.5,-557.2"
         style="fill:#000000;fill-opacity:1;fill-rule:nonzero;stroke:none"
         id="path28" />
      <path
         d="m 20536.7,20682.6 c 1.2,-305.6 -240.5,-548.2 -545.8,-547.8 -301.8,0.3 -543,240.2 -544.2,541.3 -1.2,305.6 240.5,548.1 545.9,547.8 301.8,-0.3 542.9,-240.2 544.1,-541.3"
         style="fill:#000000;fill-opacity:1;fill-rule:nonzero;stroke:none"
         id="path30" />
      <path
         d="m 20669.8,17423.9 c 291,-1.2 524.7,-237.6 523.5,-529.8 -1.2,-290.8 -237.9,-524.3 -530.2,-523.1 -291.1,1.2 -524.7,237.7 -523.5,529.8 1.2,290.9 237.8,524.3 530.2,523.1"
         style="fill:#000000;fill-opacity:1;fill-rule:nonzero;stroke:none"
         id="path32" />
      <path
         d="m 16208.4,19495.2 c -292.1,-0.6 -527.9,233.7 -528.4,524.9 -0.6,291.8 233.9,527.4 525.3,528 292,0.5 527.8,-233.7 528.4,-524.9 0.5,-291.9 -233.9,-527.5 -525.3,-528"
         style="fill:#000000;fill-opacity:1;fill-rule:nonzero;stroke:none"
         id="path34" />
      <path
         d="m 17392.3,16238.9 c -0.3,-283.6 -229,-510.5 -513.7,-509.6 -283.3,1 -509.6,230.6 -507.9,515.4 1.7,279.4 229.1,505 509.6,505.4 284.3,0.5 512.3,-227.2 512,-511.2"
         style="fill:#000000;fill-opacity:1;fill-rule:nonzero;stroke:none"
         id="path36" />
      <path
         d="m 19011.3,21717.5 c 1.6,-277.3 -220.3,-501 -498.4,-502.5 -277.5,-1.6 -501.4,220.1 -502.9,498 -1.5,277.3 220.3,501 498.4,502.5 277.6,1.5 501.4,-220.1 502.9,-498"
         style="fill:#000000;fill-opacity:1;fill-rule:nonzero;stroke:none"
         id="path38" />
      <path
         d="m 21973.4,19642.6 c -0.5,-277.8 -223.8,-500 -501.5,-499.4 -278,0.6 -500.4,223.6 -499.8,501.1 0.6,277.7 223.8,500 501.5,499.4 278,-0.6 500.4,-223.6 499.8,-501.1"
         style="fill:#000000;fill-opacity:1;fill-rule:nonzero;stroke:none"
         id="path40" />
      <path
         d="m 21208.7,18387.7 c 3.7,273 229.1,488.1 506.8,483.6 272.9,-4.4 487.3,-230.4 482,-508.4 -5.1,-268.9 -229,-482.6 -502.6,-479.7 -273.7,3 -489.9,227.3 -486.2,504.5"
         style="fill:#000000;fill-opacity:1;fill-rule:nonzero;stroke:none"
         id="path42" />
      <path
         d="m 16749.1,21499.1 c -0.9,275.7 218.8,496.4 494.2,496.5 275.5,0.1 495.4,-220.3 494.8,-495.9 -0.7,-271.6 -218.9,-490.8 -490.1,-492.3 -276.3,-1.6 -498.1,217.1 -498.9,491.7"
         style="fill:#000000;fill-opacity:1;fill-rule:nonzero;stroke:none"
         id="path44" />
      <path
         d="m 15164.5,18065.5 c -260.6,2.5 -472.7,218.6 -471.1,479.8 1.7,263.9 221.3,477.3 486.4,472.7 260.2,-4.5 470.5,-222.4 467,-483.9 -3.6,-260.1 -220.8,-471.2 -482.3,-468.6"
         style="fill:#000000;fill-opacity:1;fill-rule:nonzero;stroke:none"
         id="path46" />
      <path
         d="m 19618.2,15893.9 c 260.7,-2.3 473.1,-218.1 471.7,-479.3 -1.4,-263.9 -220.7,-477.5 -485.8,-473.3 -260.2,4.2 -470.8,221.9 -467.5,483.4 3.2,260.1 220.2,471.5 481.6,469.2"
         style="fill:#000000;fill-opacity:1;fill-rule:nonzero;stroke:none"
         id="path48" />
      <path
         d="m 18366,15676.7 c 258.3,-2.7 470.9,-217.3 469.8,-474.3 -1.1,-260.5 -222.2,-477.3 -480.8,-471.4 -259.1,5.9 -469.9,222.6 -465.7,478.4 4.4,258.4 220.2,470 476.7,467.3"
         style="fill:#000000;fill-opacity:1;fill-rule:nonzero;stroke:none"
         id="path50" />
      <path
         d="m 15873.7,17279.6 c 3,-256.2 -208.5,-472.1 -467.3,-476.8 -259,-4.7 -479.3,212.8 -479.1,473.1 0.1,257.2 213.5,471.2 471.3,472.6 257.1,1.4 472,-210.8 475.1,-468.9"
         style="fill:#000000;fill-opacity:1;fill-rule:nonzero;stroke:none"
         id="path52" />
      <path
         d="m 21722.8,20905.8 c -1.6,-258.5 -207.9,-461.4 -467.7,-459.8 -258.7,1.5 -461.8,207.7 -460.2,467.3 1.6,258.5 207.9,461.4 467.7,459.8 258.7,-1.5 461.7,-207.7 460.2,-467.3"
         style="fill:#000000;fill-opacity:1;fill-rule:nonzero;stroke:none"
         id="path54" />
      <path
         d="m 20241.7,21948.5 c 1.3,-259.5 -202,-465.3 -460.8,-466.6 -259.7,-1.3 -465.8,201.8 -467,460.5 -1.3,259.4 202,465.3 460.8,466.6 259.7,1.3 465.7,-201.9 467,-460.5"
         style="fill:#000000;fill-opacity:1;fill-rule:nonzero;stroke:none"
         id="path56" />
      <path
         d="m 21920.5,17582.6 c 249.7,-2.8 454.7,-210.8 451.9,-458.3 -2.9,-249.5 -211,-454.4 -458.7,-451.6 -249.7,2.9 -454.7,210.8 -451.9,458.3 2.8,249.6 210.9,454.4 458.7,451.6"
         style="fill:#000000;fill-opacity:1;fill-rule:nonzero;stroke:none"
         id="path58" />
      <path
         d="m 16444.3,21274.7 c 2.3,-251.4 -200.1,-454.9 -452,-454.4 -248.9,0.4 -448.5,198.6 -450.8,447.5 -2.3,251.5 200.1,455 452,454.5 248.9,-0.4 448.5,-198.7 450.8,-447.6"
         style="fill:#000000;fill-opacity:1;fill-rule:nonzero;stroke:none"
         id="path60" />
      <path
         d="m 20887.6,16092.2 c 244.5,-2.7 439.5,-203.1 437.5,-449.6 -2,-248 -205.1,-443.5 -456.2,-439.1 -243.8,4.3 -436.8,206.4 -433.3,453.7 3.6,244 204.9,437.7 452,435"
         style="fill:#000000;fill-opacity:1;fill-rule:nonzero;stroke:none"
         id="path62" />
      <path
         d="m 14958.1,19348.3 c -244.3,-1 -445.5,199.2 -445.4,443.2 0,244 201.4,444.2 445.6,443.1 240.9,-1.1 439.4,-198.7 441.4,-439.2 2,-244.2 -197.5,-446.1 -441.6,-447.1"
         style="fill:#000000;fill-opacity:1;fill-rule:nonzero;stroke:none"
         id="path64" />
      <path
         d="m 17523.8,14971.2 c -0.9,-236.7 -193,-426.4 -430.8,-425.5 -236.8,0.9 -426.8,192.8 -425.9,430.3 0.9,236.7 193,426.5 430.8,425.6 236.8,-0.9 426.8,-192.8 425.9,-430.4"
         style="fill:#000000;fill-opacity:1;fill-rule:nonzero;stroke:none"
         id="path66" />
      <path
         d="m 15615.2,15581.6 c -237.5,-0.3 -428.8,190.2 -429.1,427.2 -0.3,237.3 190.4,428.5 427.6,428.7 237.4,0.3 428.8,-190.2 429,-427.2 0.3,-237.3 -190.3,-428.5 -427.5,-428.7"
         style="fill:#000000;fill-opacity:1;fill-rule:nonzero;stroke:none"
         id="path68" />
      <path
         d="m 21028.6,22559.4 c 224.6,-0.1 401.6,-178 400.4,-402.4 -1.2,-224.3 -180.1,-400.3 -404.8,-398 -221.2,2.2 -395.2,177.1 -396.3,398.3 -1,224.4 176.1,402.2 400.7,402.1"
         style="fill:#000000;fill-opacity:1;fill-rule:nonzero;stroke:none"
         id="path70" />
      <path
         d="m 22741.2,20269.1 c 219.9,-0.4 395,-176.6 394.5,-396.8 -0.5,-219.7 -176.8,-394.7 -397.2,-394.2 -219.8,0.5 -395,176.7 -394.5,396.9 0.5,219.7 176.9,394.6 397.2,394.1"
         style="fill:#000000;fill-opacity:1;fill-rule:nonzero;stroke:none"
         id="path72" />
      <path
         d="m 18295.7,22585.8 c -219.9,0.4 -395.2,176.5 -394.8,396.6 0.4,219.7 176.6,394.8 396.9,394.5 219.9,-0.4 395.2,-176.5 394.8,-396.6 -0.4,-219.7 -176.6,-394.9 -396.9,-394.5"
         style="fill:#000000;fill-opacity:1;fill-rule:nonzero;stroke:none"
         id="path74" />
      <path
         d="m 23348.2,18605 c -1.2,-217.8 -182.5,-394.8 -401,-391.6 -214.4,3.2 -389,181.8 -387.8,396.6 1.2,217.9 182.5,394.9 401,391.6 214.5,-3.2 389,-181.7 387.8,-396.6"
         style="fill:#000000;fill-opacity:1;fill-rule:nonzero;stroke:none"
         id="path76" />
      <path
         d="m 17032.9,23143.5 c 214.2,-2.2 391.5,-182.3 389.4,-395.6 -2.2,-214.1 -182.5,-391.3 -395.9,-389.1 -214.3,2.2 -391.6,182.3 -389.4,395.6 2.2,214 182.4,391.2 395.9,389.1"
         style="fill:#000000;fill-opacity:1;fill-rule:nonzero;stroke:none"
         id="path78" />
      <path
         d="m 22146.8,15482.1 c -212.5,0.2 -380.1,169.3 -379.1,382.2 1,211.9 171,378.5 384.6,376.7 208.2,-1.7 374.4,-169.3 374.9,-378.1 0.5,-212.8 -167.6,-381.1 -380.4,-380.8"
         style="fill:#000000;fill-opacity:1;fill-rule:nonzero;stroke:none"
         id="path80" />
      <path
         d="m 15104.1,21055.3 c -1.1,-209.8 -174.1,-378.9 -384.7,-375.8 -206.3,3 -373,173.4 -372,380.3 1.1,209.8 174.2,378.8 384.7,375.8 206.3,-3 373.1,-173.5 372,-380.3"
         style="fill:#000000;fill-opacity:1;fill-rule:nonzero;stroke:none"
         id="path82" />
      <path
         d="m 20212.7,14155.9 c -7.5,-206.3 -178.4,-365.3 -383.2,-356.6 -206.6,8.7 -364.6,180.2 -354.7,384.8 9.8,203.2 177,358.9 378.8,352.8 206.3,-6.4 366.6,-176.3 359.1,-381"
         style="fill:#000000;fill-opacity:1;fill-rule:nonzero;stroke:none"
         id="path84" />
      <path
         d="m 22497.3,20754.5 c -206.5,7.6 -365.5,178.4 -356.7,383 8.8,206.5 180.4,364.3 385.2,354.3 203.4,-9.9 359.2,-177 352.9,-378.6 -6.4,-206.2 -176.6,-366.3 -381.4,-358.7"
         style="fill:#000000;fill-opacity:1;fill-rule:nonzero;stroke:none"
         id="path86" />
      <path
         d="m 19913.1,23191.7 c -1.5,-203.7 -162.6,-362.6 -367.1,-362 -207.4,0.6 -367.6,164.6 -364.3,372.9 3.3,203 166.3,360.2 371.2,357.9 203.5,-2.4 361.6,-164.3 360.2,-368.8"
         style="fill:#000000;fill-opacity:1;fill-rule:nonzero;stroke:none"
         id="path88" />
      <path
         d="m 13926.2,18676.9 c 203.4,-2.9 360.9,-165.4 358.9,-370.1 -2.1,-206.7 -167.7,-365.3 -376.6,-360.5 -202.8,4.7 -358.5,169 -354.7,374.1 3.8,202.9 167.4,359.5 372.4,356.5"
         style="fill:#000000;fill-opacity:1;fill-rule:nonzero;stroke:none"
         id="path90" />
      <path
         d="m 18939.8,13940.2 c 0.9,-204 -159.2,-365.3 -362.9,-365.5 -203.8,-0.1 -364.3,160.8 -363.7,364.7 0.6,200 159.1,359.7 358.8,361.4 204.6,1.7 366.9,-157.4 367.8,-360.6"
         style="fill:#000000;fill-opacity:1;fill-rule:nonzero;stroke:none"
         id="path92" />
      <path
         d="m 13770.1,17073 c 4.2,201.4 170.5,356.8 376.4,351.8 201.3,-5 355.9,-172 350,-378.1 -5.7,-197.5 -170.1,-351.2 -372.2,-347.8 -202,3.4 -358.4,168.6 -354.2,374.1"
         style="fill:#000000;fill-opacity:1;fill-rule:nonzero;stroke:none"
         id="path94" />
      <path
         d="m 16204.7,14761.2 c 0.8,-196.4 -164.1,-361.4 -360.7,-360.9 -196.7,0.5 -360.9,166.3 -359.1,362.4 1.8,193.5 162.8,354.6 356.5,356.8 196.2,2.2 362.4,-161.7 363.3,-358.3"
         style="fill:#000000;fill-opacity:1;fill-rule:nonzero;stroke:none"
         id="path96" />
      <path
         d="m 23181.6,16984.8 c -194.9,2 -356.3,165.6 -354.3,359.2 2,194.8 165.7,356 359.5,354 194.9,-2 356.3,-165.6 354.3,-359.1 -2,-194.8 -165.7,-356.1 -359.5,-354.1"
         style="fill:#000000;fill-opacity:1;fill-rule:nonzero;stroke:none"
         id="path98" />
      <path
         d="m 15762.1,22894 c 194.2,0.3 357,-162 357.3,-356.2 0.3,-194 -162.1,-356.7 -356.5,-357 -194.2,-0.3 -356.9,162 -357.3,356.2 -0.3,194 162.1,356.7 356.5,357"
         style="fill:#000000;fill-opacity:1;fill-rule:nonzero;stroke:none"
         id="path100" />
      <path
         d="m 21453.2,14378.9 c -2,-185.1 -158.6,-340 -343.2,-339.4 -188,0.5 -346.8,162.8 -341.8,349.1 5.1,185.9 163.5,338.8 347.4,335.3 185.7,-3.5 339.7,-160.8 337.6,-345"
         style="fill:#000000;fill-opacity:1;fill-rule:nonzero;stroke:none"
         id="path102" />
      <path
         d="m 14027.4,19566.6 c -8.2,-188.1 -167.5,-336.2 -351.4,-326.9 -188.7,9.7 -335.7,169.4 -325,353.1 10.9,185.7 165.3,329.5 347,323.1 188,-6.7 337.4,-165.1 329.4,-349.3"
         style="fill:#000000;fill-opacity:1;fill-rule:nonzero;stroke:none"
         id="path104" />
      <path
         d="m 14364.4,16124.5 c 181.4,-0.3 328.6,-147.9 328.3,-329.3 -0.3,-181.3 -148,-328.4 -329.6,-328.1 -181.4,0.3 -328.6,147.9 -328.3,329.3 0.3,181.3 148,328.4 329.6,328.1"
         style="fill:#000000;fill-opacity:1;fill-rule:nonzero;stroke:none"
         id="path106" />
      <path
         d="m 17654.8,13726.5 c 1.2,-181.7 -144.9,-330.1 -326.4,-331.2 -181.9,-1.2 -330.4,144.8 -331.6,326.2 -1.1,181.7 145,330 326.5,331.2 181.9,1.2 330.3,-144.8 331.5,-326.2"
         style="fill:#000000;fill-opacity:1;fill-rule:nonzero;stroke:none"
         id="path108" />
      <path
         d="m 21125.4,23429.1 c 2.4,-167.8 -136.3,-310.7 -305.1,-314.4 -170.7,-3.8 -316.8,139.7 -316.6,310.9 0.2,168.2 140.7,309.2 309.1,310.3 168.1,1.1 310.1,-138.4 312.6,-306.8"
         style="fill:#000000;fill-opacity:1;fill-rule:nonzero;stroke:none"
         id="path110" />
      <path
         d="m 22291.8,22078.8 c -168.7,2.5 -308.2,144.4 -307.1,312.4 1.2,171.2 148.4,313.9 318.8,308.7 168.8,-5 306.6,-149 302.9,-316.4 -3.8,-168.6 -146.8,-307.1 -314.6,-304.7"
         style="fill:#000000;fill-opacity:1;fill-rule:nonzero;stroke:none"
         id="path112" />
      <path
         d="m 23391.6,15802 c -160.8,4.8 -290.7,142.7 -283.2,300.4 7.6,158 141.1,283.7 296.3,279.1 160.7,-4.8 290.6,-142.6 283.1,-300.3 -7.6,-158 -141,-283.8 -296.2,-279.2"
         style="fill:#000000;fill-opacity:1;fill-rule:nonzero;stroke:none"
         id="path114" />
      <path
         d="m 14508,22596.9 c 158.9,2.8 294,-130.5 293.8,-290 -0.1,-156.3 -129,-286.7 -286.1,-289.5 -158.9,-2.8 -294,130.5 -293.8,290 0.1,156.4 129,286.8 286.1,289.5"
         style="fill:#000000;fill-opacity:1;fill-rule:nonzero;stroke:none"
         id="path116" />
      <path
         d="m 22365.2,14892.7 c 156.9,-1.5 278.8,-126.8 277.2,-284.7 -1.5,-156.7 -126.9,-278.5 -284.9,-276.9 -156.8,1.5 -278.8,126.8 -277.2,284.7 1.6,156.7 126.9,278.5 284.9,276.9"
         style="fill:#000000;fill-opacity:1;fill-rule:nonzero;stroke:none"
         id="path118" />
      <path
         d="m 13472.7,20546.5 c -157.1,1 -279.6,125.6 -278.6,283.2 0.9,157 125.7,279.4 283.4,278.5 157.1,-1 279.7,-125.6 278.7,-283.3 -1,-156.9 -125.7,-279.4 -283.5,-278.4"
         style="fill:#000000;fill-opacity:1;fill-rule:nonzero;stroke:none"
         id="path120" />
      <path
         d="m 18067.7,24506.8 c 150.5,-1 277.2,-129.8 274.7,-279.2 -2.5,-150.4 -132.7,-276.4 -281.5,-272.4 -147.8,3.9 -270.1,128.3 -270.6,275.1 -0.5,149.6 127.9,277.5 277.4,276.5"
         style="fill:#000000;fill-opacity:1;fill-rule:nonzero;stroke:none"
         id="path122" />
      <path
         d="m 23989.2,20363.2 c 149.5,1 277.9,-126.9 277.4,-276.5 -0.5,-150.1 -129.2,-277.1 -278.8,-275.1 -147.3,1.9 -270.9,125.1 -273.3,272.4 -2.5,149.4 124.2,278.2 274.7,279.2"
         style="fill:#000000;fill-opacity:1;fill-rule:nonzero;stroke:none"
         id="path124" />
      <path
         d="m 16796.5,24287.3 c 151.6,1.7 272.6,-117.7 273.1,-269.4 0.4,-151.4 -120.2,-271.6 -271.7,-270.8 -148.6,0.8 -266.3,116.9 -269,265.3 -2.7,151.5 115.8,273.3 267.6,274.9"
         style="fill:#000000;fill-opacity:1;fill-rule:nonzero;stroke:none"
         id="path126" />
      <path
         d="m 24232.8,19091 c 152,-6.8 265.8,-132 257.9,-283.7 -7.9,-151.7 -134.1,-264.5 -285.8,-255.4 -148.6,8.9 -259.7,130.9 -254.1,279.3 5.7,151.7 130.4,266.6 282,259.8"
         style="fill:#000000;fill-opacity:1;fill-rule:nonzero;stroke:none"
         id="path128" />
      <path
         d="m 16057.3,13230.8 c -147,0.7 -264.5,121.2 -261.8,268.5 2.7,143.3 120.7,258.2 264.7,257.5 147,-0.7 264.4,-121.3 261.7,-268.6 -2.6,-143.3 -120.7,-258.1 -264.6,-257.4"
         style="fill:#000000;fill-opacity:1;fill-rule:nonzero;stroke:none"
         id="path130" />
      <path
         d="m 14573.6,14790.1 c 140.7,2.8 263.4,-117 264.7,-258.4 1.4,-141.1 -119.2,-262.5 -260.7,-262.5 -138.4,0.1 -256.5,115.4 -260.6,254.4 -4.1,140.4 114.7,263.8 256.6,266.5"
         style="fill:#000000;fill-opacity:1;fill-rule:nonzero;stroke:none"
         id="path132" />
      <path
         d="m 19331.8,24214.3 c -138.7,0.9 -248.2,113.7 -245.4,252.7 2.8,134.9 113.2,241.9 248.8,241.1 138.6,-0.9 248.2,-113.7 245.3,-252.7 -2.7,-134.9 -113.1,-241.9 -248.7,-241.1"
         style="fill:#000000;fill-opacity:1;fill-rule:nonzero;stroke:none"
         id="path134" />
      <path
         d="m 23780.7,21106.6 c -139.1,-1.9 -251.2,108.2 -251.2,246.9 0.1,135.2 108.1,244.9 243,246.9 139.1,1.9 251.2,-108.2 251.2,-246.9 0,-135.2 -108,-244.9 -243,-246.9"
         style="fill:#000000;fill-opacity:1;fill-rule:nonzero;stroke:none"
         id="path136" />
      <path
         d="m 12650.1,17859 c -132.6,1.4 -239.5,111.1 -236.8,243 2.7,132.6 113.5,238.6 245.3,234.6 129.7,-3.9 232.8,-109.8 232.7,-239 -0.1,-132.4 -108.9,-240 -241.2,-238.6"
         style="fill:#000000;fill-opacity:1;fill-rule:nonzero;stroke:none"
         id="path138" />
      <path
         d="m 20296.6,12904 c 1.4,-132.2 -106.4,-240.9 -238.9,-241 -132.5,-0.1 -240.4,108.5 -239.2,240.7 1.2,129.4 105.2,234.3 234.8,237 132.1,2.6 241.8,-104.1 243.3,-236.7"
         style="fill:#000000;fill-opacity:1;fill-rule:nonzero;stroke:none"
         id="path140" />
      <path
         d="m 24668,17569.8 c -0.8,-131.5 -103,-232 -235,-231.1 -131.6,0.8 -232.1,102.9 -231.3,234.8 0.8,131.4 103,231.9 235,231.1 131.6,-0.8 232.1,-102.9 231.3,-234.8"
         style="fill:#000000;fill-opacity:1;fill-rule:nonzero;stroke:none"
         id="path142" />
      <path
         d="m 15781.7,23802 c -0.6,-131.4 -102.6,-232.1 -234.6,-231.5 -131.5,0.7 -232.3,102.6 -231.7,234.4 0.7,131.5 102.7,232.2 234.6,231.5 131.6,-0.6 232.4,-102.5 231.7,-234.4"
         style="fill:#000000;fill-opacity:1;fill-rule:nonzero;stroke:none"
         id="path144" />
      <path
         d="m 13115.9,16833.2 c 0.6,-131.9 -100.2,-233.8 -231.7,-234.5 -132,-0.6 -234,100.1 -234.6,231.5 -0.7,131.9 100.1,233.8 231.6,234.5 132,0.6 234,-100.1 234.7,-231.5"
         style="fill:#000000;fill-opacity:1;fill-rule:nonzero;stroke:none"
         id="path146" />
      <path
         d="m 18805,12455.1 c -131.6,0.8 -232.1,102.9 -231.3,234.9 0.8,131.4 103,231.9 235.1,231 131.5,-0.8 232.1,-102.9 231.2,-234.8 -0.8,-131.4 -103,-231.9 -235,-231.1"
         style="fill:#000000;fill-opacity:1;fill-rule:nonzero;stroke:none"
         id="path148" />
      <path
         d="m 22069,23859 c 122.4,-2 217.2,-99.3 216.3,-221.7 -1,-125.6 -102.2,-222.3 -228.1,-218.1 -122,4.1 -215.1,103.2 -212.1,225.8 3,121.9 101.4,215.9 223.9,214"
         style="fill:#000000;fill-opacity:1;fill-rule:nonzero;stroke:none"
         id="path150" />
      <path
         d="m 21327.1,13344.4 c 116.9,-1.5 214.1,-102.8 210.1,-219 -3.9,-113.8 -101.5,-207.2 -215,-205.7 -116.9,1.5 -214.1,102.8 -210.1,218.9 4,113.9 101.5,207.3 215,205.8"
         style="fill:#000000;fill-opacity:1;fill-rule:nonzero;stroke:none"
         id="path152" />
      <path
         d="m 12650.9,19351.2 c 2.3,-116.5 -96,-216.3 -212.8,-216.1 -113.7,0.2 -210,94.8 -212.3,208.6 -2.3,116.5 96,216.3 212.9,216.1 113.7,-0.2 210,-94.8 212.2,-208.6"
         style="fill:#000000;fill-opacity:1;fill-rule:nonzero;stroke:none"
         id="path154" />
      <path
         d="m 17740.1,12456.2 c -0.8,-114.3 -89.1,-200.2 -204.1,-198.5 -114.1,1.7 -199.2,90.9 -196.6,206 2.5,110.5 88.7,194.2 200,194.3 114.8,0.2 201.5,-87.1 200.7,-201.8"
         style="fill:#000000;fill-opacity:1;fill-rule:nonzero;stroke:none"
         id="path156" />
      <path
         d="m 13293.6,15564.5 c -0.6,-108.2 -91.8,-197.5 -200.1,-195.8 -108.3,1.8 -196.7,93.9 -193.9,202.1 2.8,104.8 91,191.1 196,191.6 108.3,0.6 198.6,-89.7 198,-197.9"
         style="fill:#000000;fill-opacity:1;fill-rule:nonzero;stroke:none"
         id="path158" />
      <path
         d="m 23543.9,22410.9 c -104.7,1.5 -193,93 -190.1,196.7 3,104.8 95.4,192.1 198.9,187.8 102.1,-4.2 186.2,-91.2 186,-192.5 -0.3,-104.4 -90.8,-193.6 -194.8,-192"
         style="fill:#000000;fill-opacity:1;fill-rule:nonzero;stroke:none"
         id="path160" />
      <path
         d="m 20587.6,24482.7 c -103.8,-2.3 -194.9,86.3 -195.9,190.8 -1,104.3 88.6,194.1 193,193.7 101.6,-0.3 188.2,-84.7 191.9,-186.7 3.7,-103.4 -84.3,-195.5 -189,-197.8"
         style="fill:#000000;fill-opacity:1;fill-rule:nonzero;stroke:none"
         id="path162" />
      <path
         d="m 13437.2,22093.7 c 0.2,-104.3 -89.9,-193.7 -194.2,-192.6 -104.6,1.2 -193.2,92.4 -190.7,196.1 2.5,101.5 88.6,187 190.1,188.5 104.1,1.6 194.6,-87.6 194.8,-192"
         style="fill:#000000;fill-opacity:1;fill-rule:nonzero;stroke:none"
         id="path164" />
      <path
         d="m 23627.5,14633.4 c -104.4,0.6 -193.4,91.4 -191.4,195.3 2,104.5 93.9,192.6 197.4,189.2 102,-3.3 186.7,-89.7 187.4,-191.1 0.8,-104.4 -88.8,-194.1 -193.4,-193.4"
         style="fill:#000000;fill-opacity:1;fill-rule:nonzero;stroke:none"
         id="path166" />
      <path
         d="m 14820,13446.8 c 93.1,-5.5 159.7,-81.3 155.1,-176.6 -4.7,-96.5 -84.2,-164.5 -183.1,-156.6 -92.4,7.3 -157.3,84.9 -150.7,180.4 6.4,92.8 83.1,158.4 178.7,152.8"
         style="fill:#000000;fill-opacity:1;fill-rule:nonzero;stroke:none"
         id="path168" />
      <path
         d="m 24498,16304.9 c -0.2,94.7 70.2,166.5 164.6,167.7 98.2,1.3 171.5,-72.4 169.8,-170.6 -1.6,-94.4 -73.6,-164.2 -168.6,-163.5 -94.5,0.6 -165.5,71.9 -165.8,166.4"
         style="fill:#000000;fill-opacity:1;fill-rule:nonzero;stroke:none"
         id="path170" />
      <path
         d="m 14274.7,23406.2 c -93.8,3.1 -162.6,76.8 -160.4,171.8 2.2,97.2 79.2,167.4 178,162.1 93.3,-5 160.4,-80.3 156.2,-175.6 -4,-93.4 -78.7,-161.4 -173.8,-158.3"
         style="fill:#000000;fill-opacity:1;fill-rule:nonzero;stroke:none"
         id="path172" />
      <path
         d="m 22747.5,13343.6 c -1.3,-86.8 -71.1,-154.6 -157.9,-153.4 -86.9,1.3 -154.8,71 -153.5,157.8 1.2,86.8 71,154.6 157.9,153.4 86.9,-1.3 154.7,-71 153.5,-157.8"
         style="fill:#000000;fill-opacity:1;fill-rule:nonzero;stroke:none"
         id="path174" />
      <path
         d="m 12363.7,20615.7 c 1.2,-86.8 -66.7,-156.5 -153.6,-157.7 -86.8,-1.2 -156.6,66.6 -157.8,153.4 -1.2,86.8 66.7,156.5 153.6,157.7 86.8,1.3 156.6,-66.6 157.8,-153.4"
         style="fill:#000000;fill-opacity:1;fill-rule:nonzero;stroke:none"
         id="path176" />
      <path
         d="m 16291.2,12110.5 c -77.3,-1 -135.8,56.5 -135.8,133.6 0,77.1 58.5,134.7 135.8,133.6 73.7,-1 129.7,-56 131.6,-129.5 2.1,-77.3 -54.6,-136.6 -131.6,-137.7"
         style="fill:#000000;fill-opacity:1;fill-rule:nonzero;stroke:none"
         id="path178" />
      <path
         d="m 13444.3,14317.9 c 1,-77.2 -56.7,-135.6 -133.8,-135.6 -77.1,0.1 -134.7,58.5 -133.6,135.8 1,73.6 56.1,129.5 129.6,131.4 77.4,2 136.8,-54.6 137.8,-131.6"
         style="fill:#000000;fill-opacity:1;fill-rule:nonzero;stroke:none"
         id="path180" />
      <path
         d="m 17855.4,25625.4 c 69.3,-1.9 129.7,-67.1 125.3,-135.4 -4.2,-66.2 -65.6,-123 -131.3,-121.2 -69.2,1.9 -129.6,67.1 -125.3,135.4 4.3,66.2 65.7,123 131.3,121.2"
         style="fill:#000000;fill-opacity:1;fill-rule:nonzero;stroke:none"
         id="path182" />
      <path
         d="m 25616.4,19053.2 c 1.1,-68.9 -61.7,-131.4 -130.7,-130 -66,1.4 -125,60.6 -126.1,126.5 -1.1,69 61.8,131.5 130.8,130.1 66,-1.4 125,-60.6 126,-126.6"
         style="fill:#000000;fill-opacity:1;fill-rule:nonzero;stroke:none"
         id="path184" />
      <path
         d="m 25386,20319 c 0.9,-69 -62.1,-131.4 -131,-129.7 -66.1,1.6 -124.9,60.9 -125.7,126.9 -0.9,69 62.1,131.3 131,129.7 66.1,-1.6 124.9,-61 125.7,-126.9"
         style="fill:#000000;fill-opacity:1;fill-rule:nonzero;stroke:none"
         id="path186" />
      <path
         d="m 16702.9,25280.7 c -1.4,-68 -53.8,-117.2 -122.3,-114.8 -67.8,2.3 -116.3,55.8 -112.8,124.2 3.2,64.5 52.9,111 118.1,110.7 68.3,-0.3 118.4,-51.7 117,-120.1"
         style="fill:#000000;fill-opacity:1;fill-rule:nonzero;stroke:none"
         id="path188" />
      <path
         d="m 21962.3,24906.1 c 0.6,-58 -49.8,-110.2 -108.1,-111.9 -60.7,-1.9 -116,53.4 -114,114.1 1.8,58.2 54.1,108.5 112.1,107.9 58.3,-0.7 109.5,-51.9 110,-110.1"
         style="fill:#000000;fill-opacity:1;fill-rule:nonzero;stroke:none"
         id="path190" />
      <path
         d="m 23443.4,23872 c 1.6,-57.5 -48.2,-110.8 -106.3,-113.7 -60.7,-3.1 -116.7,51.2 -115.9,112.2 0.8,58.3 52.1,109.3 110.3,109.8 58.1,0.4 110.2,-50 111.9,-108.3"
         style="fill:#000000;fill-opacity:1;fill-rule:nonzero;stroke:none"
         id="path192" />
      <path
         d="m 25706,17685 c -60.9,4.3 -98.2,33.8 -103.1,95.2 -4.7,58.2 41.7,106.6 100,104.2 61.2,-2.7 96.7,-36.9 97.7,-97.9 1.1,-61.8 -36,-93.2 -94.6,-101.5"
         style="fill:#000000;fill-opacity:1;fill-rule:nonzero;stroke:none"
         id="path194" />
      <path
         d="m 25144,21559.2 c -10.2,-57.6 -43,-91.9 -104.8,-91 -58.1,0.8 -102.2,51.7 -94.1,109.6 8.4,60.5 46.4,92.7 107.1,87.8 61.4,-4.9 89.6,-44.8 91.8,-106.4"
         style="fill:#000000;fill-opacity:1;fill-rule:nonzero;stroke:none"
         id="path196" />
      <path
         d="m 19002.8,25735.3 c 10.3,57.6 43,92 104.8,91.1 58.1,-0.9 102.2,-51.7 94.1,-109.6 -8.4,-60.6 -46.4,-92.7 -107.1,-87.9 -61.4,5 -89.6,44.9 -91.8,106.4"
         style="fill:#000000;fill-opacity:1;fill-rule:nonzero;stroke:none"
         id="path198" />
      <path
         d="m 24880.5,14967.2 c -54,3.8 -87.9,31.3 -88.8,86.8 -0.9,55 30.4,88.1 85.6,89.2 55,1 88.1,-30.3 89.3,-85.5 1.2,-55.2 -31,-84.8 -86.1,-90.5"
         style="fill:#000000;fill-opacity:1;fill-rule:nonzero;stroke:none"
         id="path200" />
      <path
         d="m 13119.5,23359.9 c -4.4,-54.3 -32.7,-87.5 -88.1,-87.7 -55.2,-0.3 -87.7,31.7 -88,86.8 -0.4,55.1 31.7,87.4 86.9,87.9 55.4,0.5 84.2,-32.3 89.2,-87"
         style="fill:#000000;fill-opacity:1;fill-rule:nonzero;stroke:none"
         id="path202" />
      <path
         d="m 11617,16529 c -57.9,6.1 -90,35.6 -88.8,90.8 1.2,55.2 34.3,86.5 89.3,85.5 55.2,-1.1 86.3,-34.3 85.6,-89.2 -0.7,-56 -35.6,-82.3 -86.1,-87.1"
         style="fill:#000000;fill-opacity:1;fill-rule:nonzero;stroke:none"
         id="path204" />
      <path
         d="m 15317.7,24964.5 c -54.6,5.1 -87.4,33.8 -86.9,89.2 0.4,55.1 32.8,87.1 87.9,86.8 55.2,-0.3 87.1,-32.8 86.9,-87.9 -0.1,-55.4 -33.4,-83.7 -87.9,-88.1"
         style="fill:#000000;fill-opacity:1;fill-rule:nonzero;stroke:none"
         id="path206" />
      <path
         d="m 11388.6,17956.2 c 55.1,-6.9 86.3,-37.5 84,-92.4 -2.3,-55.2 -36.4,-85.7 -91.2,-83.5 -55.3,2.2 -85.7,36.4 -83.6,91.1 2,55.5 36.8,82.2 90.8,84.8"
         style="fill:#000000;fill-opacity:1;fill-rule:nonzero;stroke:none"
         id="path208" />
      <path
         d="m 20288.8,11724.4 c 54.9,-5.5 87.4,-34.6 86.6,-89.9 -0.9,-55.1 -33.6,-86.8 -88.7,-86.1 -55.2,0.7 -86.8,33.6 -86.2,88.6 0.5,55.4 34.1,83.3 88.3,87.4"
         style="fill:#000000;fill-opacity:1;fill-rule:nonzero;stroke:none"
         id="path210" />
      <path
         d="m 19109.5,11422.4 c -4.4,-54.4 -32.7,-87.6 -88.1,-87.8 -55.2,-0.2 -87.7,31.7 -88,86.8 -0.4,55.1 31.7,87.5 86.9,88 55.4,0.4 84.2,-32.3 89.2,-87"
         style="fill:#000000;fill-opacity:1;fill-rule:nonzero;stroke:none"
         id="path212" />
      <path
         d="m 11992.5,21942 c 45.7,-5.4 77.4,-29.9 78.7,-76.7 1.2,-46.8 -28.5,-77.7 -75.1,-79.1 -46.8,-1.4 -77.6,28.4 -79.1,75 -1.6,47 29.2,72.8 75.5,80.8"
         style="fill:#000000;fill-opacity:1;fill-rule:nonzero;stroke:none"
         id="path214" />
      <path
         d="m 11170.1,19212.9 c 49.1,-8.4 79.8,-34.2 78.3,-81.2 -1.5,-46.5 -32.3,-76.4 -79.2,-75 -46.5,1.4 -76.1,32.2 -75.1,79 1,47.4 34,70.3 76,77.2"
         style="fill:#000000;fill-opacity:1;fill-rule:nonzero;stroke:none"
         id="path216" />
      <path
         d="m 23921.3,13577.6 c -5.4,-45.7 -29.9,-77.4 -76.8,-78.6 -46.8,-1.3 -77.7,28.4 -79.1,74.9 -1.4,46.8 28.4,77.6 75,79.1 47.1,1.6 72.9,-29.1 80.9,-75.4"
         style="fill:#000000;fill-opacity:1;fill-rule:nonzero;stroke:none"
         id="path218" />
      <path
         d="m 21633.9,11864.5 c -8,-46.3 -33.7,-77.1 -80.8,-75.6 -46.6,1.5 -76.5,32.2 -75.1,79 1.3,46.5 32.1,76.2 79,75.1 46.9,-1.2 71.4,-32.8 76.9,-78.5"
         style="fill:#000000;fill-opacity:1;fill-rule:nonzero;stroke:none"
         id="path220" />
      <path
         d="m 11828,15415.8 c 36.7,-4 62.5,-23.5 64,-60.3 1.7,-41 -23.8,-67 -64.8,-66.1 -36.9,0.8 -60.4,25.6 -60.3,62.8 0,37.3 24.7,57.3 61.1,63.6"
         style="fill:#000000;fill-opacity:1;fill-rule:nonzero;stroke:none"
         id="path222" />
      <path
         d="m 20369.5,26005.7 c 39.4,-7.5 64.5,-27.9 63.2,-65.2 -1.4,-40.7 -28,-65.7 -69,-61.7 -36,3.6 -59,29.3 -56.2,66.8 2.8,37.3 29.4,54.8 62,60.1"
         style="fill:#000000;fill-opacity:1;fill-rule:nonzero;stroke:none"
         id="path224" />
      <path
         d="m 24877.9,22836.8 c -5.7,-39.9 -25.4,-65.5 -62.5,-65.9 -41.1,-0.5 -66.6,25.4 -64.5,66.4 1.9,36.4 26.9,59.7 64.4,58.7 37.9,-0.9 55.5,-27.5 62.6,-59.2"
         style="fill:#000000;fill-opacity:1;fill-rule:nonzero;stroke:none"
         id="path226" />
      <path
         d="m 13539.6,12985.8 c -36.4,6.2 -61.1,26.2 -61.3,63.5 -0.2,37.1 23.3,62.1 60.1,63 41,1 66.6,-24.9 65,-65.9 -1.4,-36.9 -27.1,-56.4 -63.8,-60.6"
         style="fill:#000000;fill-opacity:1;fill-rule:nonzero;stroke:none"
         id="path228" />
      <path
         d="m 15086,12010.9 c -7.3,-36 -27.7,-61.1 -65.1,-59.5 -40.7,1.9 -65.6,28.5 -61.1,69.6 3.9,36 29.8,59 67.3,55.5 36.5,-3.5 56,-28.6 58.9,-65.6"
         style="fill:#000000;fill-opacity:1;fill-rule:nonzero;stroke:none"
         id="path230" />
      <path
         d="m 17768.8,11127.8 c -36.4,6.1 -61.1,26.1 -61.3,63.4 -0.2,37.2 23.3,62.1 60.1,63 41.1,1 66.6,-24.9 65,-65.9 -1.4,-36.9 -27.1,-56.4 -63.8,-60.5"
         style="fill:#000000;fill-opacity:1;fill-rule:nonzero;stroke:none"
         id="path232" />
      <path
         d="m 14065.3,24883.6 c 24.7,-1.4 41.9,-15.4 45.2,-38.1 4,-27.9 -13.6,-46.5 -40.8,-49.4 -24.6,-2.6 -41.7,14.6 -45.1,37.2 -4.2,28 14.1,43.7 40.7,50.3"
         style="fill:#000000;fill-opacity:1;fill-rule:nonzero;stroke:none"
         id="path234" />
      <path
         d="m 25930.5,16491.5 c -26.6,6.1 -44.9,21.9 -41.2,49.8 3,22.6 20.1,39.8 44.7,37.6 27.5,-2.4 45,-21.1 41.4,-48.8 -2.8,-22.7 -20.1,-36.9 -44.9,-38.6"
         style="fill:#000000;fill-opacity:1;fill-rule:nonzero;stroke:none"
         id="path236" />
      <path
         d="m 11083,10806.5 c 24.2,252.4 145.3,441.5 381.1,576.6 -266,37.5 -444.6,167.6 -567,396.4 -43.9,-274.9 -188.4,-450.1 -443.7,-560.1 303.4,-18.6 506,-152.7 629.6,-412.9 z m 729.8,636.1 c 367.4,-85.9 576.7,-318.6 585.5,-642.1 7.6,-283.4 -184.2,-549.2 -458,-634.4 -322.3,-100.3 -584.2,25.3 -816,391.6 -76.2,-388.5 -285.7,-601.9 -610.5,-621.9 -282.2,-17.3 -550.02,163 -641.91,432.2 -107.28,314.4 12.59,574.9 384.31,819.3 -212.7,10.7 -386.08,86.1 -516.21,246.7 -91.01,112.3 -136.44,242 -143.41,385.8 -13.09,270 160.31,530.9 418.02,628.6 303.5,115 562.5,16.5 828.8,-321.3 35.1,208.8 130,374.9 304.7,489.3 115.6,75.7 243.5,112.2 381.2,109.4 281.3,-5.7 532.6,-192 621.7,-457.7 102.1,-304.6 -0.2,-557.6 -338.2,-825.5"
         style="fill:#000000;fill-opacity:1;fill-rule:nonzero;stroke:none"
         id="path238" />
      <path
         d="m 12779.5,11692.8 c -328.8,0.6 -593,267.9 -590.9,597.9 2,324.5 268,587 594.3,586.4 328.8,-0.6 593,-267.9 591,-597.9 -2.1,-324.5 -268.1,-587 -594.4,-586.4"
         style="fill:#000000;fill-opacity:1;fill-rule:nonzero;stroke:none"
         id="path240" />
      <path
         d="m 11892.8,13315 c -2,-327.6 -271.6,-589.8 -602.5,-586.3 -323.9,3.5 -584.8,271.2 -582.8,597.9 2,327.7 271.5,589.9 602.6,586.4 323.8,-3.5 584.7,-271.2 582.7,-598"
         style="fill:#000000;fill-opacity:1;fill-rule:nonzero;stroke:none"
         id="path242" />
      <path
         d="m 12997.2,10432.3 c -320.9,-1.8 -587.3,262.4 -589.1,584.5 -1.8,320.6 262.7,586.8 584.9,588.6 321,1.8 587.3,-262.5 589.1,-584.5 1.9,-320.6 -262.6,-586.8 -584.9,-588.6"
         style="fill:#000000;fill-opacity:1;fill-rule:nonzero;stroke:none"
         id="path244" />
      <path
         d="m 10620.1,13090.7 c 0,-321.2 -265.6,-586.6 -587,-586.6 -321.44,0 -587.06,265.4 -587.07,586.5 -0.01,321.2 265.6,586.6 586.97,586.6 321.4,0 587.1,-265.4 587.1,-586.5"
         style="fill:#000000;fill-opacity:1;fill-rule:nonzero;stroke:none"
         id="path246" />
      <path
         d="m 11955.2,10111.7 c 314.3,2.2 577,-259.3 576.4,-573.6 -0.7,-311.7 -257.9,-569.7 -570,-571.8 -314.3,-2.2 -577,259.3 -576.4,573.6 0.7,311.6 257.9,569.6 570,571.8"
         style="fill:#000000;fill-opacity:1;fill-rule:nonzero;stroke:none"
         id="path248" />
      <path
         d="m 8997.1,11039.9 c -312.16,-0.6 -571.42,257.7 -572.09,570.1 -0.67,311.9 257.88,571 570.52,571.6 312.15,0.7 571.42,-257.6 572.09,-570 0.67,-311.9 -257.88,-571 -570.52,-571.7"
         style="fill:#000000;fill-opacity:1;fill-rule:nonzero;stroke:none"
         id="path250" />
      <path
         d="m 10690.2,8746 c -314.1,0.6 -562.6,249.9 -562.1,563.9 0.5,313.9 250,562.2 564.3,561.6 314.1,-0.5 562.6,-249.8 562.1,-563.8 -0.5,-313.9 -250,-562.2 -564.3,-561.7"
         style="fill:#000000;fill-opacity:1;fill-rule:nonzero;stroke:none"
         id="path252" />
      <path
         d="m 9771.81,10348.6 c 1.45,-314.3 -246.23,-564.3 -559.72,-565 -314.18,-0.7 -563.5,247.7 -563.42,561.3 0.08,310.3 246.19,558.8 555.62,560.9 314.96,2.2 566.09,-244.4 567.52,-557.2"
         style="fill:#000000;fill-opacity:1;fill-rule:nonzero;stroke:none"
         id="path254" />
      <path
         d="m 13095.8,13537.9 c 1.2,-305.6 -240.5,-548.2 -545.8,-547.9 -301.8,0.4 -543,240.3 -544.2,541.4 -1.2,305.6 240.5,548.1 545.9,547.8 301.8,-0.3 543,-240.3 544.1,-541.3"
         style="fill:#000000;fill-opacity:1;fill-rule:nonzero;stroke:none"
         id="path256" />
      <path
         d="m 13228.9,10279.2 c 291.1,-1.2 524.7,-237.7 523.5,-529.8 -1.2,-290.9 -237.9,-524.3 -530.2,-523.1 -291.1,1.2 -524.7,237.6 -523.5,529.8 1.2,290.8 237.8,524.3 530.2,523.1"
         style="fill:#000000;fill-opacity:1;fill-rule:nonzero;stroke:none"
         id="path258" />
      <path
         d="m 8767.46,12350.5 c -292.03,-0.6 -527.84,233.7 -528.38,524.9 -0.55,291.8 233.88,527.4 525.32,527.9 292.03,0.6 527.84,-233.7 528.38,-524.9 0.55,-291.8 -233.88,-527.4 -525.32,-527.9"
         style="fill:#000000;fill-opacity:1;fill-rule:nonzero;stroke:none"
         id="path260" />
      <path
         d="m 9951.44,9094.2 c -0.29,-283.6 -229.03,-510.6 -513.7,-509.6 -283.35,1 -509.6,230.5 -507.92,515.4 1.65,279.4 229.13,505 509.58,505.4 284.31,0.4 512.32,-227.2 512.04,-511.2"
         style="fill:#000000;fill-opacity:1;fill-rule:nonzero;stroke:none"
         id="path262" />
      <path
         d="m 11570.5,14572.8 c 1.5,-277.4 -220.4,-501 -498.5,-502.6 -277.5,-1.5 -501.4,220.2 -502.9,498.1 -1.5,277.3 220.3,501 498.4,502.5 277.6,1.5 501.4,-220.1 503,-498"
         style="fill:#000000;fill-opacity:1;fill-rule:nonzero;stroke:none"
         id="path264" />
      <path
         d="m 14532.5,12497.8 c -0.5,-277.7 -223.8,-500 -501.5,-499.4 -278,0.6 -500.4,223.7 -499.8,501.2 0.6,277.7 223.8,500 501.5,499.4 278,-0.6 500.4,-223.6 499.8,-501.2"
         style="fill:#000000;fill-opacity:1;fill-rule:nonzero;stroke:none"
         id="path266" />
      <path
         d="m 13767.8,11242.9 c 3.7,273.1 229.1,488.2 506.8,483.7 273,-4.4 487.3,-230.5 482,-508.4 -5.1,-269 -229,-482.6 -502.6,-479.7 -273.7,2.9 -489.9,227.3 -486.2,504.4"
         style="fill:#000000;fill-opacity:1;fill-rule:nonzero;stroke:none"
         id="path268" />
      <path
         d="m 9308.16,14354.4 c -0.82,275.7 218.86,496.4 494.21,496.5 275.53,0.1 495.43,-220.3 494.83,-495.9 -0.7,-271.6 -218.9,-490.8 -490.14,-492.3 -276.27,-1.6 -498.08,217 -498.9,491.7"
         style="fill:#000000;fill-opacity:1;fill-rule:nonzero;stroke:none"
         id="path270" />
      <path
         d="m 7723.56,10920.7 c -260.57,2.6 -472.67,218.7 -471.03,479.9 1.65,263.8 221.25,477.2 486.41,472.7 260.17,-4.5 470.47,-222.5 466.92,-483.9 -3.52,-260.2 -220.76,-471.2 -482.3,-468.7"
         style="fill:#000000;fill-opacity:1;fill-rule:nonzero;stroke:none"
         id="path272" />
      <path
         d="m 12177.3,8749.2 c 260.7,-2.3 473.1,-218.1 471.7,-479.3 -1.4,-263.9 -220.7,-477.6 -485.8,-473.3 -260.2,4.2 -470.8,221.9 -467.5,483.3 3.2,260.2 220.2,471.6 481.6,469.3"
         style="fill:#000000;fill-opacity:1;fill-rule:nonzero;stroke:none"
         id="path274" />
      <path
         d="m 10925.1,8532 c 258.3,-2.7 470.9,-217.3 469.8,-474.3 -1.1,-260.6 -222.2,-477.3 -480.8,-471.4 -259.1,5.9 -469.9,222.5 -465.7,478.3 4.4,258.4 220.2,470.1 476.7,467.4"
         style="fill:#000000;fill-opacity:1;fill-rule:nonzero;stroke:none"
         id="path276" />
      <path
         d="m 8432.81,10134.8 c 3.04,-256.2 -208.52,-472 -467.26,-476.7 -259.02,-4.7 -479.35,212.8 -479.19,473 0.16,257.3 213.56,471.2 471.37,472.7 257.04,1.4 472.01,-210.8 475.08,-469"
         style="fill:#000000;fill-opacity:1;fill-rule:nonzero;stroke:none"
         id="path278" />
      <path
         d="m 14281.9,13761.1 c -1.6,-258.5 -207.9,-461.4 -467.7,-459.9 -258.7,1.6 -461.8,207.8 -460.2,467.4 1.6,258.5 207.9,461.3 467.7,459.8 258.7,-1.6 461.7,-207.8 460.2,-467.3"
         style="fill:#000000;fill-opacity:1;fill-rule:nonzero;stroke:none"
         id="path280" />
      <path
         d="m 12800.8,14803.8 c 1.3,-259.5 -202,-465.4 -460.8,-466.6 -259.7,-1.3 -465.8,201.8 -467,460.4 -1.3,259.5 202,465.4 460.8,466.7 259.7,1.3 465.7,-201.9 467,-460.5"
         style="fill:#000000;fill-opacity:1;fill-rule:nonzero;stroke:none"
         id="path282" />
      <path
         d="m 14479.6,10437.9 c 249.7,-2.8 454.7,-210.8 451.9,-458.3 -2.9,-249.5 -210.9,-454.4 -458.7,-451.6 -249.7,2.8 -454.7,210.8 -451.9,458.3 2.8,249.5 210.9,454.4 458.7,451.6"
         style="fill:#000000;fill-opacity:1;fill-rule:nonzero;stroke:none"
         id="path284" />
      <path
         d="m 9003.39,14130 c 2.28,-251.4 -200.12,-454.9 -452.03,-454.5 -248.85,0.5 -448.5,198.7 -450.75,447.6 -2.27,251.4 200.12,454.9 452.03,454.5 248.86,-0.5 448.5,-198.7 450.75,-447.6"
         style="fill:#000000;fill-opacity:1;fill-rule:nonzero;stroke:none"
         id="path286" />
      <path
         d="m 13446.8,8947.5 c 244.4,-2.8 439.4,-203.1 437.4,-449.7 -2,-248 -205.1,-443.4 -456.2,-439 -243.8,4.3 -436.8,206.4 -433.3,453.6 3.6,244 204.9,437.8 452.1,435.1"
         style="fill:#000000;fill-opacity:1;fill-rule:nonzero;stroke:none"
         id="path288" />
      <path
         d="m 7517.2,12203.6 c -244.28,-1 -445.48,199.2 -445.42,443.2 0.07,244 201.38,444.1 445.67,443 240.83,-1.1 439.32,-198.6 441.31,-439.1 2.01,-244.2 -197.46,-446.2 -441.56,-447.1"
         style="fill:#000000;fill-opacity:1;fill-rule:nonzero;stroke:none"
         id="path290" />
      <path
         d="m 10082.9,7826.5 c -0.9,-236.7 -193,-426.5 -430.75,-425.6 -236.88,0.9 -426.83,192.9 -425.92,430.4 0.9,236.7 192.99,426.5 430.73,425.6 236.89,-0.9 426.84,-192.8 425.94,-430.4"
         style="fill:#000000;fill-opacity:1;fill-rule:nonzero;stroke:none"
         id="path292" />
      <path
         d="m 8174.26,8436.8 c -237.47,-0.2 -428.79,190.3 -429.08,427.3 -0.28,237.3 190.38,428.4 427.59,428.7 237.46,0.3 428.79,-190.2 429.07,-427.2 0.28,-237.3 -190.37,-428.5 -427.58,-428.8"
         style="fill:#000000;fill-opacity:1;fill-rule:nonzero;stroke:none"
         id="path294" />
      <path
         d="m 13587.7,15414.7 c 224.6,-0.1 401.6,-178 400.4,-402.4 -1.2,-224.4 -180.1,-400.3 -404.8,-398 -221.2,2.2 -395.2,177.1 -396.3,398.2 -1,224.5 176.1,402.3 400.7,402.2"
         style="fill:#000000;fill-opacity:1;fill-rule:nonzero;stroke:none"
         id="path296" />
      <path
         d="m 15300.3,13124.4 c 219.9,-0.5 395,-176.7 394.5,-396.8 -0.5,-219.7 -176.8,-394.7 -397.2,-394.2 -219.8,0.5 -394.9,176.7 -394.4,396.9 0.4,219.6 176.8,394.6 397.1,394.1"
         style="fill:#000000;fill-opacity:1;fill-rule:nonzero;stroke:none"
         id="path298" />
      <path
         d="m 10854.8,15441.1 c -219.9,0.4 -395.2,176.4 -394.8,396.6 0.4,219.7 176.6,394.8 396.9,394.4 219.9,-0.4 395.2,-176.4 394.8,-396.5 -0.4,-219.8 -176.6,-394.9 -396.9,-394.5"
         style="fill:#000000;fill-opacity:1;fill-rule:nonzero;stroke:none"
         id="path300" />
      <path
         d="m 15907.3,11460.3 c -1.2,-217.8 -182.5,-394.9 -401,-391.6 -214.4,3.2 -389,181.7 -387.8,396.6 1.2,217.8 182.5,394.9 401,391.6 214.5,-3.2 389,-181.7 387.8,-396.6"
         style="fill:#000000;fill-opacity:1;fill-rule:nonzero;stroke:none"
         id="path302" />
      <path
         d="m 9591.96,15998.7 c 214.25,-2.1 391.58,-182.3 389.41,-395.5 -2.17,-214.1 -182.45,-391.3 -395.87,-389.1 -214.25,2.2 -391.58,182.3 -389.41,395.5 2.18,214.1 182.45,391.3 395.87,389.1"
         style="fill:#000000;fill-opacity:1;fill-rule:nonzero;stroke:none"
         id="path304" />
      <path
         d="m 14705.9,8337.4 c -212.5,0.2 -380.1,169.2 -379.1,382.2 1,211.9 171.1,378.5 384.6,376.7 208.2,-1.7 374.4,-169.3 374.9,-378.1 0.6,-212.8 -167.6,-381.1 -380.4,-380.8"
         style="fill:#000000;fill-opacity:1;fill-rule:nonzero;stroke:none"
         id="path306" />
      <path
         d="m 7663.23,13910.5 c -1.08,-209.8 -174.11,-378.8 -384.7,-375.7 -206.3,2.9 -373.05,173.4 -371.99,380.3 1.08,209.8 174.12,378.8 384.71,375.7 206.29,-2.9 373.04,-173.4 371.98,-380.3"
         style="fill:#000000;fill-opacity:1;fill-rule:nonzero;stroke:none"
         id="path308" />
      <path
         d="m 12771.8,7011.2 c -7.5,-206.3 -178.3,-365.3 -383.2,-356.6 -206.6,8.7 -364.6,180.1 -354.7,384.7 9.8,203.3 177,359 378.8,352.8 206.3,-6.3 366.6,-176.3 359.1,-380.9"
         style="fill:#000000;fill-opacity:1;fill-rule:nonzero;stroke:none"
         id="path310" />
      <path
         d="m 15056.4,13609.8 c -206.5,7.6 -365.5,178.4 -356.7,383 8.8,206.4 180.4,364.3 385.2,354.3 203.4,-10 359.2,-177.1 352.9,-378.7 -6.4,-206.1 -176.6,-366.2 -381.4,-358.6"
         style="fill:#000000;fill-opacity:1;fill-rule:nonzero;stroke:none"
         id="path312" />
      <path
         d="m 12472.2,16047 c -1.5,-203.7 -162.6,-362.6 -367.1,-362 -207.4,0.6 -367.6,164.6 -364.3,372.9 3.3,203 166.3,360.2 371.2,357.8 203.5,-2.3 361.7,-164.3 360.2,-368.7"
         style="fill:#000000;fill-opacity:1;fill-rule:nonzero;stroke:none"
         id="path314" />
      <path
         d="m 6485.35,11532.2 c 203.36,-2.9 360.9,-165.4 358.86,-370.1 -2.07,-206.7 -167.74,-365.3 -376.59,-360.5 -202.77,4.7 -358.53,168.9 -354.69,374.1 3.81,202.9 167.36,359.4 372.42,356.5"
         style="fill:#000000;fill-opacity:1;fill-rule:nonzero;stroke:none"
         id="path316" />
      <path
         d="m 11498.9,6795.5 c 0.9,-204.1 -159.2,-365.4 -362.9,-365.5 -203.8,-0.2 -364.3,160.8 -363.7,364.7 0.6,200 159.1,359.7 358.8,361.4 204.6,1.6 366.9,-157.4 367.8,-360.6"
         style="fill:#000000;fill-opacity:1;fill-rule:nonzero;stroke:none"
         id="path318" />
      <path
         d="m 6329.24,9928.3 c 4.16,201.4 170.43,356.8 376.37,351.8 201.29,-5 355.89,-172 349.98,-378.1 -5.66,-197.6 -170.06,-351.2 -372.16,-347.8 -201.98,3.4 -358.43,168.6 -354.19,374.1"
         style="fill:#000000;fill-opacity:1;fill-rule:nonzero;stroke:none"
         id="path320" />
      <path
         d="m 8763.77,7616.5 c 0.88,-196.4 -164.03,-361.4 -360.62,-360.9 -196.7,0.5 -360.99,166.3 -359.13,362.4 1.83,193.5 162.75,354.5 356.52,356.8 196.16,2.2 362.36,-161.8 363.23,-358.3"
         style="fill:#000000;fill-opacity:1;fill-rule:nonzero;stroke:none"
         id="path322" />
      <path
         d="m 15740.7,9840.1 c -194.9,2 -356.3,165.6 -354.3,359.2 2,194.8 165.7,356 359.5,354 194.9,-2 356.3,-165.6 354.3,-359.2 -2,-194.8 -165.7,-356 -359.5,-354"
         style="fill:#000000;fill-opacity:1;fill-rule:nonzero;stroke:none"
         id="path324" />
      <path
         d="m 8321.2,15749.2 c 194.18,0.4 356.97,-161.9 357.29,-356.1 0.31,-194.1 -162.1,-356.7 -356.46,-357 -194.18,-0.3 -356.97,161.9 -357.28,356.1 -0.32,194.1 162.1,356.7 356.45,357"
         style="fill:#000000;fill-opacity:1;fill-rule:nonzero;stroke:none"
         id="path326" />
      <path
         d="m 14012.3,7234.1 c -2,-185.1 -158.6,-339.9 -343.2,-339.4 -188,0.6 -346.8,162.8 -341.8,349.2 5.1,185.9 163.5,338.8 347.4,335.3 185.7,-3.5 339.7,-160.9 337.6,-345.1"
         style="fill:#000000;fill-opacity:1;fill-rule:nonzero;stroke:none"
         id="path328" />
      <path
         d="m 6586.49,12421.9 c -8.15,-188.1 -167.44,-336.3 -351.41,-326.9 -188.63,9.6 -335.72,169.4 -324.96,353 10.88,185.8 165.32,329.6 347.02,323.1 187.94,-6.6 337.33,-165 329.35,-349.2"
         style="fill:#000000;fill-opacity:1;fill-rule:nonzero;stroke:none"
         id="path330" />
      <path
         d="m 6923.48,8979.8 c 181.46,-0.3 328.66,-147.9 328.37,-329.4 -0.3,-181.3 -148.07,-328.4 -329.62,-328.1 -181.47,0.3 -328.67,148 -328.37,329.4 0.3,181.3 148.07,328.4 329.62,328.1"
         style="fill:#000000;fill-opacity:1;fill-rule:nonzero;stroke:none"
         id="path332" />
      <path
         d="m 10213.9,6581.8 c 1.2,-181.8 -144.9,-330.1 -326.43,-331.3 -181.9,-1.2 -330.33,144.9 -331.52,326.2 -1.19,181.8 144.97,330.1 326.46,331.3 181.89,1.2 330.29,-144.9 331.49,-326.2"
         style="fill:#000000;fill-opacity:1;fill-rule:nonzero;stroke:none"
         id="path334" />
      <path
         d="m 13684.5,16284.3 c 2.4,-167.7 -136.3,-310.6 -305.1,-314.3 -170.7,-3.8 -316.8,139.7 -316.6,310.9 0.2,168.2 140.7,309.2 309.1,310.3 168.1,1.1 310.1,-138.4 312.6,-306.9"
         style="fill:#000000;fill-opacity:1;fill-rule:nonzero;stroke:none"
         id="path336" />
      <path
         d="m 14850.9,14934.1 c -168.7,2.4 -308.2,144.3 -307.1,312.3 1.2,171.3 148.5,313.9 318.8,308.8 168.8,-5.1 306.6,-149 302.9,-316.4 -3.8,-168.6 -146.8,-307.1 -314.6,-304.7"
         style="fill:#000000;fill-opacity:1;fill-rule:nonzero;stroke:none"
         id="path338" />
      <path
         d="m 15950.7,8657.3 c -160.8,4.8 -290.7,142.6 -283.1,300.4 7.5,157.9 141,283.7 296.2,279.1 160.7,-4.8 290.6,-142.7 283.1,-300.4 -7.6,-158 -141,-283.7 -296.2,-279.1"
         style="fill:#000000;fill-opacity:1;fill-rule:nonzero;stroke:none"
         id="path340" />
      <path
         d="m 7067.09,15452.2 c 158.94,2.8 294.02,-130.5 293.84,-290 -0.17,-156.3 -129.04,-286.7 -286.11,-289.5 -158.94,-2.8 -294.01,130.5 -293.84,290 0.17,156.3 129.04,286.7 286.11,289.5"
         style="fill:#000000;fill-opacity:1;fill-rule:nonzero;stroke:none"
         id="path342" />
      <path
         d="m 14924.4,7748 c 156.8,-1.6 278.7,-126.8 277.2,-284.7 -1.6,-156.7 -127,-278.5 -285,-277 -156.8,1.6 -278.8,126.9 -277.2,284.7 1.6,156.7 126.9,278.6 285,277"
         style="fill:#000000;fill-opacity:1;fill-rule:nonzero;stroke:none"
         id="path344" />
      <path
         d="m 6031.8,13401.8 c -157.05,0.9 -279.63,125.6 -278.64,283.2 0.99,156.9 125.7,279.4 283.49,278.4 157.06,-1 279.63,-125.6 278.64,-283.2 -0.99,-157 -125.7,-279.4 -283.49,-278.4"
         style="fill:#000000;fill-opacity:1;fill-rule:nonzero;stroke:none"
         id="path346" />
      <path
         d="m 10626.8,17362.1 c 150.5,-1 277.2,-129.8 274.7,-279.2 -2.5,-150.4 -132.7,-276.4 -281.5,-272.4 -147.8,3.9 -270.1,128.3 -270.6,275.1 -0.5,149.6 127.9,277.5 277.4,276.5"
         style="fill:#000000;fill-opacity:1;fill-rule:nonzero;stroke:none"
         id="path348" />
      <path
         d="m 16548.3,13218.5 c 149.5,1 277.9,-126.9 277.4,-276.5 -0.5,-150.1 -129.2,-277.1 -278.8,-275.2 -147.3,2 -270.9,125.1 -273.3,272.4 -2.5,149.5 124.2,278.3 274.7,279.3"
         style="fill:#000000;fill-opacity:1;fill-rule:nonzero;stroke:none"
         id="path350" />
      <path
         d="m 9355.58,17142.6 c 151.63,1.6 272.66,-117.8 273.09,-269.4 0.42,-151.4 -120.15,-271.6 -271.67,-270.8 -148.6,0.8 -266.26,116.9 -268.97,265.3 -2.77,151.5 115.75,273.3 267.55,274.9"
         style="fill:#000000;fill-opacity:1;fill-rule:nonzero;stroke:none"
         id="path352" />
      <path
         d="m 16792,11946.3 c 151.9,-6.8 265.7,-132.1 257.8,-283.7 -7.9,-151.8 -134.1,-264.5 -285.8,-255.4 -148.6,8.8 -259.6,130.9 -254.1,279.2 5.7,151.7 130.4,266.7 282.1,259.9"
         style="fill:#000000;fill-opacity:1;fill-rule:nonzero;stroke:none"
         id="path354" />
      <path
         d="m 8616.36,6086.1 c -146.97,0.7 -264.44,121.2 -261.73,268.5 2.65,143.3 120.71,258.1 264.66,257.4 146.98,-0.7 264.44,-121.2 261.73,-268.5 -2.65,-143.3 -120.71,-258.1 -264.66,-257.4"
         style="fill:#000000;fill-opacity:1;fill-rule:nonzero;stroke:none"
         id="path356" />
      <path
         d="m 7132.75,7645.4 c 140.67,2.7 263.33,-117.1 264.68,-258.5 1.35,-141.1 -119.22,-262.4 -260.72,-262.4 -138.38,0.1 -256.51,115.4 -260.58,254.4 -4.11,140.4 114.66,263.8 256.62,266.5"
         style="fill:#000000;fill-opacity:1;fill-rule:nonzero;stroke:none"
         id="path358" />
      <path
         d="m 11890.9,17069.6 c -138.7,0.8 -248.2,113.7 -245.4,252.7 2.8,134.9 113.2,241.9 248.8,241 138.6,-0.8 248.2,-113.6 245.3,-252.6 -2.7,-134.9 -113.1,-241.9 -248.7,-241.1"
         style="fill:#000000;fill-opacity:1;fill-rule:nonzero;stroke:none"
         id="path360" />
      <path
         d="m 16339.8,13961.9 c -139.1,-2 -251.2,108.2 -251.2,246.9 0.1,135.2 108.1,244.9 243,246.8 139.1,2 251.2,-108.2 251.2,-246.8 0,-135.3 -108,-245 -243,-246.9"
         style="fill:#000000;fill-opacity:1;fill-rule:nonzero;stroke:none"
         id="path362" />
      <path
         d="m 5209.22,10714.3 c -132.66,1.4 -239.5,111 -236.81,243 2.7,132.6 113.5,238.6 245.32,234.6 129.66,-3.9 232.8,-109.8 232.71,-239 -0.1,-132.4 -108.92,-240.1 -241.22,-238.6"
         style="fill:#000000;fill-opacity:1;fill-rule:nonzero;stroke:none"
         id="path364" />
      <path
         d="m 12855.7,5759.3 c 1.4,-132.2 -106.4,-240.9 -238.9,-241 -132.5,-0.1 -240.4,108.5 -239.2,240.7 1.2,129.4 105.2,234.3 234.8,236.9 132.1,2.7 241.8,-104 243.3,-236.6"
         style="fill:#000000;fill-opacity:1;fill-rule:nonzero;stroke:none"
         id="path366" />
      <path
         d="m 17227.1,10425 c -0.8,-131.4 -103,-231.9 -235,-231.1 -131.6,0.8 -232.1,102.9 -231.3,234.9 0.8,131.4 103,231.9 235,231.1 131.6,-0.8 232.1,-102.9 231.3,-234.9"
         style="fill:#000000;fill-opacity:1;fill-rule:nonzero;stroke:none"
         id="path368" />
      <path
         d="m 8340.84,16657.3 c -0.64,-131.5 -102.68,-232.1 -234.61,-231.5 -131.57,0.6 -232.33,102.6 -231.69,234.4 0.63,131.5 102.67,232.2 234.61,231.5 131.56,-0.6 232.33,-102.6 231.69,-234.4"
         style="fill:#000000;fill-opacity:1;fill-rule:nonzero;stroke:none"
         id="path370" />
      <path
         d="m 5674.96,9688.4 c 0.64,-131.8 -100.13,-233.8 -231.69,-234.4 -131.94,-0.6 -233.98,100.1 -234.61,231.5 -0.64,131.8 100.13,233.8 231.69,234.4 131.94,0.7 233.98,-100 234.61,-231.5"
         style="fill:#000000;fill-opacity:1;fill-rule:nonzero;stroke:none"
         id="path372" />
      <path
         d="m 11364.1,5310.4 c -131.6,0.8 -232.1,102.9 -231.3,234.9 0.9,131.4 103,231.8 235.1,231 131.5,-0.8 232.1,-102.9 231.2,-234.8 -0.8,-131.5 -103,-231.9 -235,-231.1"
         style="fill:#000000;fill-opacity:1;fill-rule:nonzero;stroke:none"
         id="path374" />
      <path
         d="m 14628.1,16714.2 c 122.4,-2 217.2,-99.2 216.3,-221.7 -1,-125.5 -102.2,-222.2 -228.1,-218 -122,4.1 -215.1,103.2 -212.1,225.7 3,122 101.4,216 223.9,214"
         style="fill:#000000;fill-opacity:1;fill-rule:nonzero;stroke:none"
         id="path376" />
      <path
         d="m 13886.3,6199.7 c 116.8,-1.5 214,-102.9 210,-219 -3.9,-113.9 -101.5,-207.3 -215,-205.8 -116.9,1.6 -214.1,102.9 -210.1,219 4,113.9 101.6,207.3 215.1,205.8"
         style="fill:#000000;fill-opacity:1;fill-rule:nonzero;stroke:none"
         id="path378" />
      <path
         d="m 5210.04,12206.5 c 2.31,-116.5 -96,-216.3 -212.88,-216.1 -113.67,0.2 -209.96,94.8 -212.21,208.6 -2.31,116.5 95.99,216.3 212.88,216.1 113.68,-0.2 209.96,-94.8 212.21,-208.6"
         style="fill:#000000;fill-opacity:1;fill-rule:nonzero;stroke:none"
         id="path380" />
      <path
         d="m 10299.2,5311.4 c -0.8,-114.3 -89.1,-200.1 -204.1,-198.4 -114.06,1.7 -199.16,90.8 -196.56,206 2.49,110.5 88.62,194.2 199.96,194.3 114.8,0.2 201.5,-87.1 200.7,-201.9"
         style="fill:#000000;fill-opacity:1;fill-rule:nonzero;stroke:none"
         id="path382" />
      <path
         d="m 5852.74,8419.8 c -0.59,-108.3 -91.82,-197.5 -200.12,-195.8 -108.32,1.8 -196.75,93.9 -193.89,202 2.77,104.9 90.99,191.2 196.03,191.7 108.28,0.6 198.58,-89.7 197.98,-197.9"
         style="fill:#000000;fill-opacity:1;fill-rule:nonzero;stroke:none"
         id="path384" />
      <path
         d="m 16103,15266.1 c -104.6,1.6 -193,93.1 -190.1,196.7 3,104.9 95.4,192.2 198.9,187.9 102.1,-4.2 186.2,-91.3 186,-192.6 -0.2,-104.3 -90.8,-193.5 -194.8,-192"
         style="fill:#000000;fill-opacity:1;fill-rule:nonzero;stroke:none"
         id="path386" />
      <path
         d="m 13146.7,17338 c -103.8,-2.4 -194.9,86.3 -195.9,190.8 -1,104.2 88.6,194.1 193,193.7 101.6,-0.4 188.2,-84.7 191.9,-186.7 3.7,-103.4 -84.3,-195.5 -189,-197.8"
         style="fill:#000000;fill-opacity:1;fill-rule:nonzero;stroke:none"
         id="path388" />
      <path
         d="m 5996.28,14949 c 0.21,-104.4 -89.92,-193.8 -194.18,-192.6 -104.56,1.2 -193.22,92.4 -190.69,196.1 2.47,101.5 88.62,187 190.08,188.5 104.07,1.5 194.58,-87.7 194.79,-192"
         style="fill:#000000;fill-opacity:1;fill-rule:nonzero;stroke:none"
         id="path390" />
      <path
         d="m 16186.7,7488.7 c -104.5,0.6 -193.5,91.4 -191.5,195.2 2,104.5 93.9,192.7 197.5,189.3 101.9,-3.3 186.6,-89.7 187.3,-191.2 0.8,-104.4 -88.8,-194 -193.3,-193.3"
         style="fill:#000000;fill-opacity:1;fill-rule:nonzero;stroke:none"
         id="path392" />
      <path
         d="m 7379.08,6302 c 93.15,-5.4 159.72,-81.2 155.09,-176.6 -4.69,-96.4 -84.18,-164.4 -183.02,-156.6 -92.47,7.4 -157.3,85 -150.71,180.5 6.4,92.8 83.04,158.3 178.64,152.7"
         style="fill:#000000;fill-opacity:1;fill-rule:nonzero;stroke:none"
         id="path394" />
      <path
         d="m 17057.1,9160.2 c -0.2,94.7 70.2,166.4 164.6,167.7 98.2,1.2 171.5,-72.4 169.8,-170.6 -1.6,-94.4 -73.6,-164.3 -168.6,-163.6 -94.5,0.7 -165.5,72 -165.8,166.5"
         style="fill:#000000;fill-opacity:1;fill-rule:nonzero;stroke:none"
         id="path396" />
      <path
         d="m 6833.82,16261.5 c -93.77,3.1 -162.62,76.8 -160.45,171.8 2.23,97.2 79.26,167.3 178.05,162.1 93.3,-5 160.34,-80.4 156.22,-175.6 -4.03,-93.4 -78.74,-161.4 -173.82,-158.3"
         style="fill:#000000;fill-opacity:1;fill-rule:nonzero;stroke:none"
         id="path398" />
      <path
         d="m 15306.6,6198.9 c -1.3,-86.9 -71.1,-154.7 -157.9,-153.4 -86.9,1.2 -154.8,71 -153.5,157.8 1.2,86.8 71,154.6 157.9,153.4 86.9,-1.3 154.7,-71 153.5,-157.8"
         style="fill:#000000;fill-opacity:1;fill-rule:nonzero;stroke:none"
         id="path400" />
      <path
         d="m 4922.81,13471 c 1.2,-86.8 -66.67,-156.5 -153.57,-157.7 -86.87,-1.2 -156.63,66.6 -157.84,153.4 -1.2,86.8 66.68,156.5 153.58,157.7 86.87,1.2 156.63,-66.6 157.83,-153.4"
         style="fill:#000000;fill-opacity:1;fill-rule:nonzero;stroke:none"
         id="path402" />
      <path
         d="m 8850.27,4965.8 c -77.28,-1 -135.77,56.5 -135.77,133.6 0,77.1 58.5,134.6 135.77,133.6 73.75,-1 129.71,-56 131.65,-129.5 2.04,-77.4 -54.66,-136.7 -131.65,-137.7"
         style="fill:#000000;fill-opacity:1;fill-rule:nonzero;stroke:none"
         id="path404" />
      <path
         d="m 6003.37,7173.2 c 1.01,-77.2 -56.63,-135.6 -133.77,-135.6 -77.14,0 -134.71,58.5 -133.64,135.7 1.02,73.7 56.14,129.6 129.66,131.5 77.42,2 136.75,-54.7 137.75,-131.6"
         style="fill:#000000;fill-opacity:1;fill-rule:nonzero;stroke:none"
         id="path406" />
      <path
         d="m 10414.5,18480.7 c 69.3,-1.9 129.7,-67.2 125.3,-135.4 -4.2,-66.3 -65.6,-123 -131.3,-121.2 -69.2,1.9 -129.6,67.1 -125.3,135.3 4.3,66.3 65.7,123 131.3,121.3"
         style="fill:#000000;fill-opacity:1;fill-rule:nonzero;stroke:none"
         id="path408" />
      <path
         d="m 18175.5,11908.5 c 1.1,-69 -61.7,-131.5 -130.7,-130 -66,1.4 -125,60.5 -126,126.5 -1.2,69 61.7,131.5 130.7,130.1 66,-1.4 125,-60.6 126,-126.6"
         style="fill:#000000;fill-opacity:1;fill-rule:nonzero;stroke:none"
         id="path410" />
      <path
         d="m 17945.1,13174.3 c 0.9,-69 -62.1,-131.4 -131,-129.7 -66.1,1.6 -124.9,60.9 -125.7,126.9 -0.9,69 62.1,131.3 131,129.6 66.1,-1.5 124.9,-60.9 125.7,-126.8"
         style="fill:#000000;fill-opacity:1;fill-rule:nonzero;stroke:none"
         id="path412" />
      <path
         d="m 9261.98,18136 c -1.36,-68 -53.78,-117.2 -122.27,-114.9 -67.76,2.4 -116.28,55.8 -112.84,124.3 3.24,64.4 52.89,111 118.16,110.7 68.29,-0.3 118.33,-51.7 116.95,-120.1"
         style="fill:#000000;fill-opacity:1;fill-rule:nonzero;stroke:none"
         id="path414" />
      <path
         d="m 14521.4,17761.4 c 0.6,-58 -49.8,-110.2 -108.1,-112 -60.7,-1.8 -116,53.5 -114,114.2 1.8,58.2 54.1,108.5 112.1,107.8 58.3,-0.6 109.5,-51.8 110,-110"
         style="fill:#000000;fill-opacity:1;fill-rule:nonzero;stroke:none"
         id="path416" />
      <path
         d="m 16002.5,16727.3 c 1.6,-57.5 -48.2,-110.9 -106.3,-113.8 -60.7,-3 -116.7,51.3 -115.9,112.3 0.8,58.3 52.1,109.3 110.4,109.7 58,0.5 110.1,-50 111.8,-108.2"
         style="fill:#000000;fill-opacity:1;fill-rule:nonzero;stroke:none"
         id="path418" />
      <path
         d="m 18265.1,10540.2 c -60.9,4.4 -98.2,33.9 -103.1,95.3 -4.7,58.2 41.7,106.6 100,104.1 61.2,-2.6 96.8,-36.8 97.8,-97.9 1,-61.7 -36.1,-93.2 -94.7,-101.5"
         style="fill:#000000;fill-opacity:1;fill-rule:nonzero;stroke:none"
         id="path420" />
      <path
         d="m 17703.1,14414.5 c -10.2,-57.6 -43,-91.9 -104.7,-91 -58.2,0.8 -102.3,51.6 -94.2,109.5 8.4,60.6 46.4,92.8 107.1,87.9 61.4,-4.9 89.6,-44.8 91.8,-106.4"
         style="fill:#000000;fill-opacity:1;fill-rule:nonzero;stroke:none"
         id="path422" />
      <path
         d="m 11561.9,18590.6 c 10.3,57.6 43,91.9 104.8,91 58.1,-0.8 102.2,-51.6 94.1,-109.5 -8.4,-60.6 -46.4,-92.8 -107.1,-87.9 -61.4,5 -89.6,44.9 -91.8,106.4"
         style="fill:#000000;fill-opacity:1;fill-rule:nonzero;stroke:none"
         id="path424" />
      <path
         d="m 17439.6,7822.5 c -54,3.8 -87.9,31.3 -88.8,86.8 -0.9,55 30.4,88.1 85.6,89.2 55.1,1 88.1,-30.4 89.3,-85.5 1.2,-55.3 -31,-84.8 -86.1,-90.5"
         style="fill:#000000;fill-opacity:1;fill-rule:nonzero;stroke:none"
         id="path426" />
      <path
         d="m 5678.61,16215.2 c -4.42,-54.3 -32.68,-87.6 -88.14,-87.8 -55.16,-0.2 -87.63,31.7 -87.97,86.9 -0.34,55.1 31.7,87.4 86.86,87.9 55.41,0.5 84.21,-32.3 89.25,-87"
         style="fill:#000000;fill-opacity:1;fill-rule:nonzero;stroke:none"
         id="path428" />
      <path
         d="m 4176.11,9384.3 c -57.91,6 -90.05,35.6 -88.85,90.8 1.2,55.2 34.3,86.5 89.31,85.5 55.23,-1.1 86.33,-34.3 85.63,-89.3 -0.72,-55.9 -35.61,-82.2 -86.09,-87"
         style="fill:#000000;fill-opacity:1;fill-rule:nonzero;stroke:none"
         id="path430" />
      <path
         d="m 7876.82,17819.8 c -54.61,5 -87.44,33.8 -86.96,89.2 0.47,55.1 32.84,87.1 87.99,86.8 55.17,-0.4 87.09,-32.8 86.9,-87.9 -0.19,-55.4 -33.44,-83.7 -87.93,-88.1"
         style="fill:#000000;fill-opacity:1;fill-rule:nonzero;stroke:none"
         id="path432" />
      <path
         d="m 3947.73,10811.4 c 55.06,-6.8 86.28,-37.4 83.99,-92.4 -2.31,-55.2 -36.45,-85.6 -91.25,-83.4 -55.27,2.1 -85.64,36.4 -83.59,91.1 2.07,55.5 36.85,82.1 90.85,84.7"
         style="fill:#000000;fill-opacity:1;fill-rule:nonzero;stroke:none"
         id="path434" />
      <path
         d="m 12847.9,4579.6 c 54.9,-5.4 87.4,-34.5 86.6,-89.8 -0.9,-55.2 -33.6,-86.8 -88.7,-86.1 -55.2,0.7 -86.8,33.5 -86.2,88.6 0.5,55.4 34.1,83.3 88.3,87.3"
         style="fill:#000000;fill-opacity:1;fill-rule:nonzero;stroke:none"
         id="path436" />
      <path
         d="m 11668.6,4277.7 c -4.4,-54.4 -32.7,-87.6 -88.1,-87.8 -55.2,-0.2 -87.7,31.7 -88,86.8 -0.3,55.1 31.7,87.5 86.9,87.9 55.4,0.5 84.2,-32.3 89.2,-86.9"
         style="fill:#000000;fill-opacity:1;fill-rule:nonzero;stroke:none"
         id="path438" />
      <path
         d="m 4551.63,14797.3 c 45.72,-5.4 77.42,-29.9 78.65,-76.7 1.24,-46.8 -28.47,-77.7 -75.03,-79.1 -46.85,-1.4 -77.63,28.4 -79.16,74.9 -1.54,47.1 29.19,72.9 75.54,80.9"
         style="fill:#000000;fill-opacity:1;fill-rule:nonzero;stroke:none"
         id="path440" />
      <path
         d="m 3729.22,12068.2 c 49.04,-8.4 79.77,-34.2 78.25,-81.2 -1.5,-46.6 -32.29,-76.4 -79.12,-75 -46.55,1.4 -76.11,32.1 -75.13,79 0.99,47.4 33.99,70.2 76,77.2"
         style="fill:#000000;fill-opacity:1;fill-rule:nonzero;stroke:none"
         id="path442" />
      <path
         d="m 16480.4,6432.8 c -5.4,-45.7 -29.9,-77.3 -76.8,-78.6 -46.8,-1.2 -77.7,28.5 -79.1,75 -1.4,46.8 28.4,77.6 75,79.1 47.1,1.5 72.9,-29.2 80.9,-75.5"
         style="fill:#000000;fill-opacity:1;fill-rule:nonzero;stroke:none"
         id="path444" />
      <path
         d="m 14193,4719.8 c -8,-46.4 -33.7,-77.1 -80.8,-75.6 -46.6,1.4 -76.5,32.2 -75.1,79 1.3,46.5 32.1,76.2 79,75.1 46.9,-1.2 71.4,-32.9 76.9,-78.5"
         style="fill:#000000;fill-opacity:1;fill-rule:nonzero;stroke:none"
         id="path446" />
      <path
         d="m 4387.1,8271.1 c 36.68,-4 62.47,-23.5 64.01,-60.3 1.71,-41 -23.76,-67 -64.83,-66.1 -36.86,0.7 -60.4,25.6 -60.32,62.7 0.09,37.4 24.76,57.4 61.14,63.7"
         style="fill:#000000;fill-opacity:1;fill-rule:nonzero;stroke:none"
         id="path448" />
      <path
         d="m 12928.6,18860.9 c 39.4,-7.4 64.5,-27.8 63.2,-65.1 -1.3,-40.7 -27.9,-65.7 -69,-61.7 -36,3.6 -59,29.2 -56.2,66.8 2.8,37.3 29.4,54.7 62,60"
         style="fill:#000000;fill-opacity:1;fill-rule:nonzero;stroke:none"
         id="path450" />
      <path
         d="m 17437,15692.1 c -5.7,-39.9 -25.4,-65.5 -62.5,-65.9 -41.1,-0.5 -66.6,25.4 -64.5,66.4 1.9,36.4 26.9,59.7 64.4,58.7 37.9,-0.9 55.5,-27.5 62.6,-59.2"
         style="fill:#000000;fill-opacity:1;fill-rule:nonzero;stroke:none"
         id="path452" />
      <path
         d="m 6098.71,5841.1 c -36.42,6.2 -61.09,26.2 -61.32,63.5 -0.23,37.1 23.34,62 60.13,62.9 41.03,1 66.59,-24.8 65.02,-65.9 -1.41,-36.8 -27.16,-56.4 -63.83,-60.5"
         style="fill:#000000;fill-opacity:1;fill-rule:nonzero;stroke:none"
         id="path454" />
      <path
         d="m 7645.1,4866.2 c -7.25,-36.1 -27.7,-61.2 -65.09,-59.5 -40.69,1.8 -65.56,28.5 -61.09,69.5 3.91,36 29.77,59.1 67.25,55.6 36.52,-3.5 56.05,-28.6 58.93,-65.6"
         style="fill:#000000;fill-opacity:1;fill-rule:nonzero;stroke:none"
         id="path456" />
      <path
         d="m 10327.9,3983 c -36.4,6.2 -61.1,26.2 -61.3,63.5 -0.2,37.2 23.3,62.1 60.1,63 41.1,1 66.6,-24.9 65,-65.9 -1.4,-36.9 -27.1,-56.4 -63.8,-60.6"
         style="fill:#000000;fill-opacity:1;fill-rule:nonzero;stroke:none"
         id="path458" />
      <path
         d="m 6624.36,17738.9 c 24.74,-1.4 41.98,-15.4 45.23,-38.1 4,-27.9 -13.59,-46.5 -40.76,-49.4 -24.63,-2.6 -41.76,14.6 -45.12,37.1 -4.18,28.1 14.14,43.8 40.65,50.4"
         style="fill:#000000;fill-opacity:1;fill-rule:nonzero;stroke:none"
         id="path460" />
      <path
         d="m 18489.6,9346.8 c -26.6,6.1 -44.9,21.9 -41.2,49.8 3,22.6 20.1,39.8 44.7,37.6 27.5,-2.4 45,-21.1 41.4,-48.8 -2.8,-22.7 -20.1,-36.9 -44.9,-38.6"
         style="fill:#000000;fill-opacity:1;fill-rule:nonzero;stroke:none"
         id="path462" />
      <path
         d="m 10058.1,5976 c 6.2,224.2 1.1,465 -15.1,715.7 -50.9,791.9 -223.83,1537.4 -513.87,2215.7 -574.88,1342.2 -1654.78,2342 -2962.66,2743 -363.31,111.3 -738.09,167.7 -1113.9,167.7 -152.41,0 -306.1,-9.4 -456.91,-28 l -464.57,-57.4 334.71,327.2 c 817.94,799.7 1329.9,1842.8 1441.71,2937.4 110.93,1084.5 -180.19,2230.5 -798.76,3144.1 l -210.03,310.1 368.76,-66 c 269.87,-48.2 545.56,-72.7 819.5,-72.7 804.87,0 1585.52,209 2257.44,604.5 973.54,572.6 1689.78,1478.3 1915.88,2422.8 l 93.6,390.6 197.7,-349.6 c 639.3,-1130.4 2141.4,-1700.8 3266.5,-1752.4 59.8,-2.8 120.5,-4.2 180.5,-4.2 1720.6,0 3084.5,1116.9 3744.3,1782.7 402.2,405.7 771.2,871.9 1096.8,1385.8 l 211.5,333.6 77.1,-387.3 c 194.9,-979 660,-2354.8 1768.7,-3349.5 659.5,-591.4 1415.2,-989.6 2128.2,-1121.4 174.9,-32.5 356.2,-48.9 539.2,-48.9 280.3,0 559.9,37.9 831,112.8 l 454.5,125.5 -287,-374.1 c -432.3,-563.3 -728.6,-1286.6 -857.1,-2091.5 -184.8,-1157.4 126.1,-2353.1 852.9,-3280.8 l 208.5,-266 -337.9,10.6 c -108.8,3.4 -217.5,5.2 -323,5.2 -1490.4,0 -2678.7,-347.8 -3531.9,-1033.7 -808.2,-650.1 -1314.4,-1668.3 -1425.3,-2867.2 -31.7,-337.4 -33.7,-687.1 -6.1,-1069.4 l 26.9,-371.4 -285.9,238.7 c -1065.2,889.7 -2392.8,1379.7 -3738.1,1379.7 l -43.4,-0.2 c -1614,-12.5 -3207.7,-703.1 -4372.5,-1894.5 -297.8,-304.5 -561,-627.2 -782.4,-959.3 l -304.7,-457 15.2,549.1"
         style="fill:#ffffff;fill-opacity:1;fill-rule:nonzero;stroke:none"
         id="path464" />
      <path
         d="m 23949.7,16017.1 c -193.9,-1214.5 134.9,-2446.3 884.6,-3403.1 -1391.5,43.7 -2855.1,-176 -3958.9,-1063.3 -910.5,-732.3 -1377.8,-1831.4 -1483.7,-2975.8 -34.3,-364.6 -32.7,-730.8 -6.3,-1095.4 -1083.8,905.2 -2451.1,1427.4 -3884.2,1416.3 -1690.2,-13.2 -3307.2,-738.2 -4484.3,-1942.1 -280.3,-286.6 -559.5,-620.1 -800.8,-982.1 6.8,247.7 0,493.2 -15.3,730.3 -50,777.6 -219.71,1550.6 -526.34,2267.7 -572.72,1337.2 -1657.56,2401.5 -3061.7,2831.9 -533.19,163.4 -1090.1,212.9 -1636.47,145.4 822.45,804.1 1370.93,1883.6 1488.43,3034.3 115.91,1132.8 -186.52,2305.7 -825.1,3248.8 1083.27,-193.9 2224.48,-14.3 3184.98,551.1 926.25,544.8 1735,1459.4 1989.5,2522.1 645.4,-1141.2 2157.6,-1775.5 3396.8,-1832.4 1549.5,-71.7 2983.2,754.5 4044.3,1825.1 417.8,421.5 794.5,902 1118,1412.5 257.7,-1294 829.3,-2549 1818.3,-3436.3 607.5,-544.8 1395.2,-1009.5 2205,-1159.1 471,-87.5 971.5,-62.7 1441,66.9 -472.6,-615.9 -760.8,-1367.2 -887.8,-2162.8 z m 1968.4,3119.1 c -54.3,-32.1 -106.9,-65.3 -159.1,-99.1 -57.4,-12.1 -112.8,-33.2 -154.9,-52.1 -374.6,-169.1 -740.8,-358.8 -1152.3,-416.3 -355.6,-50 -718.6,5.3 -1056.9,119.1 -668.6,224.5 -1311.4,649.1 -1800.9,1155.5 -1001.6,1036.9 -1528.5,2488.9 -1666,3905.7 -32.1,328.3 -575.8,151.2 -669.6,-53.7 -611.2,-1331.4 -1525.3,-2553.8 -2824.6,-3282.5 -1176,-659.1 -2506.4,-686.5 -3713.5,-81.1 -726,365.1 -1240.8,921.5 -1773.4,1516.9 -79.1,89 -364.1,-5.8 -317.7,-139.7 8.9,-25.2 18.9,-50 28.4,-74.8 -387.8,-1025.8 -995.79,-1979.5 -1958.92,-2550.6 -1079.05,-640.1 -2440.5,-701.8 -3590.67,-216 -150.16,63.2 -693.91,-101.2 -487.36,-321.4 901.48,-962.1 1403.07,-2251.9 1292.95,-3575.9 -106.96,-1287.2 -780.84,-2486.4 -1810.88,-3260.4 -247.1,-185.4 54.8,-325 243.94,-262.3 1277.15,425.2 2680.76,-113.8 3630.2,-999 1005.8,-937.8 1527.42,-2318.8 1647.54,-3669.2 36.89,-416.2 34.78,-835.1 -3.16,-1251.3 -37.4,-414.1 -135.41,-818.3 -178.61,-1230.8 -22.13,-213.9 370.92,-78 425.19,33.7 74.81,154.9 134.38,317.7 182.78,485.3 125.4,247.6 249.8,495.2 396.8,731.8 225,362.5 473.1,707.6 755,1027.9 515.8,584.9 1142.8,1064.9 1845.7,1403.6 1327.2,638.6 2904.6,699.2 4274.5,154.4 846.2,-336.6 1582.8,-875.1 2193.9,-1547.4 147.6,-161.8 574.9,8.9 534.8,235 -179.6,1010 -192.3,2104.3 171.3,3076.9 399.9,1069.6 1239.7,1795.6 2328.8,2114.9 892,260.8 1847.2,257.1 2764.5,177.1 123.8,-11.1 497.4,164.3 337.7,327.7 -878.8,899.9 -1314,2191.3 -1151.2,3439.4 149.1,1142.8 649.6,2295.6 1679.1,2898.9 340.4,199.7 4.3,436.3 -263.4,279.8"
         style="fill:#000000;fill-opacity:1;fill-rule:nonzero;stroke:none"
         id="path466" />
      <path
         d="m 20708.6,9627.5 c -12.2,-229.7 168.6,-428.1 291.8,-610.1 169.2,-250.2 329.3,-504.9 469.7,-772.6 124,-236.4 234.3,-480.2 330.1,-729.3 91.5,-238 131.5,-608.8 336.5,-770.6 106.7,-84.2 350.9,-37.1 399.8,103 90,257.7 -49.2,520.2 -147,764.5 -118.3,295.3 -257.1,582.2 -414.6,858.4 -246.3,431.9 -589.9,1105.9 -1103.4,1243.9 -52.9,14.2 -159.4,-21.6 -162.9,-87.2 v 0"
         style="fill:#000000;fill-opacity:1;fill-rule:nonzero;stroke:none"
         id="path468" />
      <path
         d="m 21326.1,10607.8 c 149.8,-577.4 878.7,-1194.6 1487.3,-1176.4 69.6,2.1 351,115.3 228.1,221.2 -216.3,186.2 -523.1,254.2 -752.9,435.1 -244.5,192.4 -416.3,438.1 -614.2,673.2 -88.5,105.1 -386.1,-7.1 -348.3,-153.1 v 0"
         style="fill:#000000;fill-opacity:1;fill-rule:nonzero;stroke:none"
         id="path470" />
      <path
         d="m 7412.8,19800.1 c -138.94,673.9 -547.94,1259.3 -1037.92,1734.4 -460.76,446.7 -1081.27,909.4 -1736.86,978 -97.79,10.2 -455.41,-162.8 -298.13,-289.1 224.18,-180.1 509.76,-277 755.18,-426.2 278.61,-169.4 538.99,-361.1 776.57,-584.9 472.38,-444.9 814.69,-994.5 1139.11,-1550.7 88.24,-151.3 439.21,-41.8 402.05,138.5 v 0"
         style="fill:#000000;fill-opacity:1;fill-rule:nonzero;stroke:none"
         id="path472" />
      <path
         d="m 8229.32,20275 c -83.97,348.6 -177.82,687.2 -218.82,1044.6 -34.7,302.5 -46.84,601.4 -106.63,900.6 -25.59,128.1 -293.39,32.6 -320.38,-54.3 -201.32,-648 -88.02,-1433.8 188.23,-2048.4 83.02,-184.8 505.11,-39.7 457.6,157.5 v 0"
         style="fill:#000000;fill-opacity:1;fill-rule:nonzero;stroke:none"
         id="path474" />
      <path
         d="m 8354.16,23575.1 c -12.01,3.3 -23.82,5.8 -34.53,7.8 -29,5.6 -214.79,23.5 -219.55,35 -21.57,52 -43.78,103.8 -67.47,155.3 -78.14,170 -240.26,312.8 -373.67,211.1 -100.26,-76.4 -141.79,-133.4 -212.09,-268.7 -6.83,-13.1 -113.97,13.9 -132.58,16 -75.36,8.8 -147.87,-0.6 -199.53,-36.5 -42.21,-29.3 -94.47,-94.9 -10.07,-153.4 85.98,-59.7 172.37,-118.5 258.62,-177.7 6.07,-4.2 -13.57,-181.9 -14.11,-200.5 -1.55,-52.7 -26.07,-169.5 6.31,-226.6 33.81,-59.5 127.98,-62 173.8,-61.4 80.61,1.2 135.68,31.6 187.54,74.4 11.4,9.4 105.33,99.5 122.25,88.7 96.73,-61.8 198.52,-142.2 304.12,-169.9 113.28,-29.6 230.05,23.2 189.11,143.3 -32.92,96.5 -73.74,194 -109.64,290.7 -5.38,14.5 121.96,52.1 136.54,58.4 44.23,19.3 96.27,75.6 89.33,132.1 -5.84,47.7 -51.36,70 -94.38,81.9"
         style="fill:#000000;fill-opacity:1;fill-rule:nonzero;stroke:none"
         id="path476" />
      <path
         d="m 23833.6,8630.4 c 7.3,10.1 13.7,20.3 19.3,29.7 15.2,25.3 96.3,193.4 108.7,193.9 56.2,2.3 112.5,5.3 169.1,9.7 186.4,14.6 376.4,117.4 327.1,277.8 -37.1,120.5 -76.2,179.1 -178.9,291.8 -9.9,11 52.4,102.2 60.8,118.9 34.3,67.7 50.6,139 34.7,199.8 -12.9,49.8 -56.4,121.5 -140.5,62.5 -85.7,-60.1 -170.8,-120.8 -256.1,-181.3 -6,-4.3 -166,75.6 -183.3,82.5 -48.9,19.7 -150,83 -214.7,72.3 -67.6,-11.1 -102.5,-98.6 -117.7,-141.9 -26.8,-76 -17.3,-138.2 5,-201.7 4.9,-13.9 57,-133.2 41,-145.3 -91.4,-69.4 -202.1,-137.2 -264.5,-226.7 -66.9,-96.1 -57.7,-224 69.1,-227 102,-2.4 207.6,2.2 310.7,2.5 15.5,0 6.8,-132.5 7.7,-148.3 2.8,-48.2 37.6,-116.5 93.1,-129.5 46.7,-11 83.4,24 109.4,60.3"
         style="fill:#000000;fill-opacity:1;fill-rule:nonzero;stroke:none"
         id="path478" />
    </g>
  </g>
</svg>
